<mxfile host="app.diagrams.net" agent="Mozilla/5.0 (Windows NT 10.0; Win64; x64) AppleWebKit/537.36 (KHTML, like Gecko) Chrome/130.0.0.0 Safari/537.36 Edg/130.0.0.0" version="24.8.4">
  <diagram name="PÃ¡gina-1" id="amlZ9TWq5PZjEAk4ELLL">
    <mxGraphModel dx="2335" dy="1796" grid="1" gridSize="10" guides="1" tooltips="1" connect="1" arrows="1" fold="1" page="1" pageScale="1" pageWidth="827" pageHeight="1169" math="0" shadow="0">
      <root>
        <mxCell id="0" />
        <mxCell id="1" parent="0" />
        <mxCell id="cYQp5CiZOz7pDUolLlOw-6" style="edgeStyle=orthogonalEdgeStyle;rounded=0;orthogonalLoop=1;jettySize=auto;html=1;exitX=0.5;exitY=1;exitDx=0;exitDy=0;entryX=0.5;entryY=0;entryDx=0;entryDy=0;" edge="1" parent="1" source="cYQp5CiZOz7pDUolLlOw-1" target="cYQp5CiZOz7pDUolLlOw-3">
          <mxGeometry relative="1" as="geometry" />
        </mxCell>
        <mxCell id="cYQp5CiZOz7pDUolLlOw-1" value="Start&lt;div&gt;product_id&lt;/div&gt;" style="rounded=1;whiteSpace=wrap;html=1;" vertex="1" parent="1">
          <mxGeometry x="290" width="120" height="40" as="geometry" />
        </mxCell>
        <mxCell id="cYQp5CiZOz7pDUolLlOw-2" value="" style="shape=image;verticalLabelPosition=bottom;labelBackgroundColor=default;verticalAlign=top;aspect=fixed;imageAspect=0;image=data:image/png,iVBORw0KGgoAAAANSUhEUgAAA3gAAAJOCAYAAADlOqVKAAAAAXNSR0IArs4c6QAAAARnQU1BAACxjwv8YQUAAAAJcEhZcwAAEnQAABJ0Ad5mH3gAANZkSURBVHhe7P1drF3Xmp4HLiaVwKiUK6hc+IJhaJYodAWBfdGwwQtGImwGIYkghhsodrVEGF1qn4bcFCq20WAkXygXXWD7HKqJoFExJIDGcWTEIYWCUAWkkESiDTWirTAdAo1uV9DwjSTQNEEU2hdJTlW52k662OuZXO/muz+O+bPWXnuvvRffBxh7zznm+PnGN37m+OYYc64Tz+bMQgghhBBCCCEce/65xf8QQgghhBBCCMecGHghhBBCCCGEsCXEwAshhBBCCCGELSEGXgghhBBCCCFsCTHwQgghhBBCCGFLiIEXQgghhBBCCFtCDLwQQgghhBBC2BJi4IUQQgghhBDClhADL4QQQgghhBC2hBh4IYQQQgghhLAlxMALIYQQQgghhC0hBl4IIYQQQgghbAkx8EIIIYQQQghhS4iBF0IIIYQQQghbQgy8EEIIIYQQQtgSjoSB99lnn81OnDixx33zzTeLq8tx5cqVLv5777238Dk8Xn/99ZfKQdmOCujE9cIxMqKzTaG6H5Ph+++/39Xpqm3jKOJtv4/jVPa+NkU56R9iSrmnoP7urtX3Pb8hR7gxPK2PPvpo4fsczj0t6kvnVa6azjJh98t++j75LxvPy0Z7DiGEEMLBsXEDj4nL22+/vTh7wZtvvtldOw5oUvfdd98tfF5A2XxiuymQ4ZNPPlmcHQ2Y6LXqPmwXGBPrrmcZDF9++eXC5wW084M0JN56663Z9evXu+MPPvhg1+gmP87h8uXLXbg33nhjduvWrc4PuXxMk07Onj07e//995cKuykw7FTGEEIIIRxNNm7gffjhh91/JkzPnj3rHJMj0LWjDJM7TXiYfKkMuHv37nX+GH6tVYVN8/HHH3dyfvHFFwufwwOjGH2FcV577bXdNoURcJQ5rDbFAyBB/5J+cMLbF8aWh9EYw3/3J9wUKKd45513uv/ex/06BplkkaHmYT/99NPF0XJhQwghhBBaHJl38M6cObM4ejFhaq2I1W2QY9uVFL6G09Yunzz5Vji5MW7evNn9Z1L27bffdseCyaKMPJ7Ia0VBadcVypb/FJkIX8NoVQE4ly61usF1ys5xa7uV0pGrsrpetYLZF7ZCvr7SsQreDlx++VcZXEctWvGkH4/j9eErN/Kr14Try8O18DCk08pTYUi35t+qT9cX5RrTB/m0rsvP+43LUtsU/2lzQBvkGuErhFPaLfkdj0+aGMAOhppo5bUu/AEOcms1Ef8qkxtmhJVOWLGrRvsyYadQ28eQTjwcjjoVHKuM/Oe6+ou3FzlvI5WxcN4e5CiHU8O4rI6HwdV0QgghhK1jPhnaKPMJPrOxXTefLC2u7AV/D+dublwtQr1I7/r16935fFL0UhhQ3J2dne6c//Krrk8mUJj5pG7h8zLkTRhkgb441X+KTIRtXcepbH3X0BHH6EwM5enhVKY+p7xbkK/qpyVDi6H6xym+6rumxzn+yrciOfy6l1Hlkb7Vnob035eWX/f44Occg5ddcqicfW4sb/frQ9eVp7cNlR+kW2SSHqV/XXNHOC9nn276GKtLqHJUlEbf9anU8g2lJ5nkXIeVZcIOMbXfQKsePEzrOvU4lIfGPG87Led1WcvuTlS9y7mehuRSmw4hhBC2kY0beNC6AfsNH/yGLnzSoImEwil+a3KsyaVPBjR50aQaNNGosohW2i2qTIrjeUH1nyKTzjUJg5ofKC33a8VVONeN9IWrsuHQA7TqY4yWDC1c1y4b+cif/D2c5Gr5VVx28Dg4lUfySo+67vJXmaClL6i69WPhsig9z8N1XeuvL0354fqoZfU8cSqHzpGtVZ/y83pzuZQ+KCyuD5XRy12RrJ6noz4y1u6mIHlxfe1LSHac6rKPZcL24fqUbKQlP5Vf9eH6aumwpTfl4fWocPJr5QlVPm/rLXnlp3O1aY8nXUkGbycqk8sQQgghbBtHYovmXI7djwsItiVpyw1banz7k2C70nyC0B1/9dVX3f8KW6XmN/Pu+MGDB91/bYF69913u/+kP58gdMe896KtPNoadf/+/e7/YTJVJm1t1ZYpti3x/hM69feApsA2K+Xp28TYaiodfv31191/gf61HY36mE8Gu+ODxGXzd5aoX6/vzz//fM9//OvWOeFb39CD4ihttS/p/dq1a3u2c/a9c6U2J1xfFf+QxtR3wcA/uqE2LVRflN3T9H7Ux4ULF7r/KvOdO3e6/yrbw4cPd7eM4rfK9kG4cePG4uhFnseFut1R7aYF7UX9C+7evbs4epllwg6humN89X6qcVPQNhgz2Gau7btTP6ai9y75ry26Gq9beF/xY9oTMpIWDkjL37cUaoMaG4mreGqHkoFyEMbLNCRfCCGEcNw5Mu/gMUnVDVoTdCY4PomGU6dOLY6eIwOnvv/m6J0+JqhuLF69erX7P4ZPtByfqD958mRx9DLKz98z3C+SCb1JX0Bemszs5/2jkydPLo6eo7LW91fWWaZ14fUNMs7k34cmvRhliiNjEr26AVyNmWq06eHEo0ePuv9iir5a7b4PTXQPAhmEyKOyk5/eO8V4lOFx6dKl7v8qVN2N0adbR9f63staB/SFagRxXvuIkAEveFgjA7myTNh1oXGj5j0GcimuHkDtB71bN9S260M3GXq4Pv1XpoYLIYQQjhsbNfB8YuA3W1agdHN//Phx919UQ2rKRI6JKukxQb19+3bn17eas7Ozs2touutDxpV/8RPDSmXyifrp06cXRy8zNNkYk0krdjhfmZn6BL7F06dPF0fPkXzLTsYPgiFjGtwwQf8ysH0Fq4VWjzDuFAdDTnUsw6aufkCtPz1wWMYAJl2tZC87yT4oatkx5M6dO9cdM8n2Fc3D4uLFi91/jIlWv8FPhobCHgT+cRD6qGgZu31hW6tTy4RdF54n/YaxpO6q6EMPThhjNQ75Q6dKHVsc76+MZaTlOhCMQ8qr5qcxXiid6o7CWBZCCCEcBBs18HwVxCcYWi0AjCJuxLqB+8SXcFMnctq6pvC+mkP6Mig1kQWMRgw1l60iww559fU/bdHDubzVwPCthnVSMlWmek4ebuRpAjxlJYP6UJ6uH590HYUtdNWYVls5f/589x9khEn/LaOsovpRWdXmpIuqA69PbyN9Mo3BdjXf3rmfFVghWZHdHzZMNSBbZVd/pIwqZ13RdNa9yutbUtGVG3kcS3/gYdcJdSOdYAhRfvU7dOJ1h9417tAOCetGi7edZcJOQcamryz6uCl0jTxl+GgF3NE1R21A4xRpSTctfDzz8vDgQA/0qEP1r7o91R8Mcgw85FJ/VVl07uOFVgc1VocQQghbybMNM58cdS+9t9z8Jr8ItfdF++rmN/JFqPYHRmA+CdkTpzKfnO257o64QwyVQY4wAtlaYeSQBabINBSmpRc54kkODzeUnuuUusHPywV9/n20ZGhR66+6Gr+2l7E6FK4nlWGo7QzVveugTy+ub+F+5O35Uy5Qvt5HoOWvvN253xC17NKjl9vbRas+PazCt8oNff6VKlfLSdYWquexdtfC86769/aj/HWOc6QrnOp1mbBTGNOTyu/pt5yo4ajbVvuSU/pD4zeOdGFo/MGp7K7n6kgDhvJcRochhBDCceMEf+Y3vI3CU9i6/Wh+A2/+WDIrUfNJy+Ls+dNzf0rPk1meHs8nDHte4Ieha9CSYxn1VNlgPvnZ9fO0aliOCQvzCcru0+spMtVVC6hlrGHIg3eoeJLf0jVPuR2XCSR/1X+ffx88we+TwXH555OzPToZaytjaTusoGh1i3y0MjWUVkv/Hhf69OL5eb16W+UjJF520mWFiFUZ/P390z5/5Q/IwMp4K98WksXT9HbpbaOvPj1/ysRKYCv/Pn30ofycvv7tqEzLtA1x9gf/cHEUjjvf/fiPL45CCCGE7eFIGHivAhhMUyaeYX3ISK3G6auEG0xuXMowqoZgCCGEEEI43sTAC1vFfldht43W6qIzdaX1VUCremOwEtl6Fy2EEEII4SgQAy9sFdWgyWT8OXXLLbzKK5stphp4r/3F/p9nCMeLbNEMIYSwjcTACyGEEEIIIYQt4cj80HkIIYQQQgghhP0RAy+EEEIIIYQQtoQYeCGEEEIIIYSwJcTACyGEEEIIIYQtIQZeCCGEEEIIIWwJMfBCCCGEEEIIYUuIgRdCCCGEEEIIW0IMvBBCCCGEEELYEmLghRBCCCGEEMKWEAMvhBBCCCGEELaEGHghhBBCCCGEsCXEwAshhBBCCCGELSEGXgghhBBCCCFsCTHwQgghhBBCCGFLiIEXQgghhBBCCFtCDLwQQgghhBBC2BJi4IUQQgghhBDClhADL4QQQgghhBC2hBh4IYQQQgghhLAlxMALIYQQQgghhC3hlTfwPvvss9mJEydmV65cWfg8h3P8v//++4XP/iG9PlfzXwZkJI11yvoqoraAO+qofb733nsLn+d89NFHe9oS54R7/fXXFz6rQXzpRu6bb75ZXH2ZVnhkqagccrUNk4dfVxqt9N15OugIv5YOpJ++uKC8pGv1tzH3F/7CX2j6V7fJfrtqm5/aro5TnwohhBC2hVfawGNi9fbbby/O9vLOO+90/2/fvt39P2i+/PLLbhK07GSPCdTZs2cXZ+FVBmPpgw8+WJytB03Qv/vuu4XPC958882XHkwMhUe2sYn+w4cPF0fPuXv37uJoOegTQwYoYKS09DUlbgghhBDCUeWVNfCY3A0ZRm+99Vb3/5NPPln7E/Z79+7Nnj17tut8MlxXZMLhQZ2rTo46X3zxRSfnxx9/vPBZP/4A5PLly7u6wXEOPJjAqIP6wMTDexsfWvX59NNPF0fPuX///uKoza1bt3rzGTMOZdx5GhoTbt682f1v8dprr+3Jk/jC/X/1V3914Tub7ezs7LnmjvQ2xXFq8yGEEEKYxitp4GFEaXKniWoLXfv888+7/wcFEzwmgMCE2VcPtL3Mna5jpPqEmsmpr6jU7W+4IWPVt8P5Mc4NT9KQv29x87yr3HWlR0wJ53ngXBZRy7rKdrzWdjKlS55+HUd6lXpdefYZNbru5Xbdy3gCl8WPgfRpO6DVYI8rCKe0W3p0tHpNu8KgdHTOwwo9DPHV7mow0MZlfPG/yuYGo0APhCX/oYcxDvlcv369Ox5q687p06cXR7PZu+++2/3/9ttvu/+bwvuY+ruQf6ttuPPyq95rH/A27bi/XKu9Qx0rWu2u4uWTq9R0cVPSDiGEEF51XtkVPCaBY0/PL1682P3/6quvuv8HyRtvvLE7iX3w4EH3nwkVK4gVtsaNTV6ZvPtkWUydKJOHgxxuhAjf4qZtrUwmq9wyOuqksxXO86EcdRtdlYXjWlYMA9IX6LJvO96YLoE863Ze0vMJJ+VzuH7nzp3FWZvz5893/11+1T98/fXXi6MXYa5du9b9Xxbk8xUuytQ3aQetnsnoqdB/ZNyBwvuKlkNfkyHn5RK6JoNGeujLvwV1qTY11LdBfYF6Vd29//77Xbk2beC5rnwl0o096X6Zvu59QIZwhTxqW4fa3oH2VMcK4g4ZYqTfks3HB8LUdGEs7RBCCCG8ogYe29qmbG3Tk/3W5Okw0GRM27t8cv706dNuMsoKiuA6Kys+ycWPuFohhCkGDZNL4uE0EUQPPsEEJmoKx4QTg0Fy+rY0oVUjJmk1nM6VD07lUDpKy2VR/Wjrq9Lhv8LISJdhj9Mkc+oKbaseZKi4oeThPGwLN+w1cfUHCjKaXO/EqWCQyCBQ3bnxhRy+FVFhhwxQye4rXENMCS+jq9UG9UBFBo30ICO4BX0Ew0DODYcbN24sjtrU7Z9KY8joXRWMFZdTrvXQROiBifoASDe+SrlsX1e4vjFQ21NbW1cfP37c/Xda4T788MPufwuVy7eqqzxaBZZxT3o1TN3GG0IIIYS9vNIfWRnj1KlTi6NpRtG60cSGCT2TQZ+8DsEkWnGBuK2n4UP45M+PfXUJ6rtKMhiYjLkhIkNUxpgMIwwNhXO58fO8fFIsfBIIWonhQx2eDsiwYDJMGAxNjCLCYCiPUeWUgSTcgPRwfatZzqVLl7r/6IR2Jh1RLibj+KmsmuSugpdTxtRR4urVq91/DC/Xg/Q5FRkFqvM+1N6qTjEahwyvw8INdBn4Mua0iqsy4IC2PdTXKeuYXvR+J+0FPZCmjPcKuvZ2JeNL7baCn9JSf8WpXDK69ZCAsFxnNZ5xCLnqduEQQggh7CUG3hEGI0QToGXRxGyqUThGXzpuBDtnzpxZHD3nIIzlR48edf/rSoxPHJUXk0Mvgww93JQtX2OT4v2gyTrl0FckmYjL8MNPhvOFCxe6/8uySjtQnNaqTYsp4VUfLX3iRxpM6rWSM2bQ+uqR3LLbK2U44FQGXyFeB76a7W7MWFH5WblTO0VGN3qX6eu1X7YgH/UNGdmHhYw/jFuvexl6OO0CCCGEEEKbGHhHBCaTmtywJY1zPdXWJFbXx2CCpomZtkH5tq0psAXUUd5Tt+vJ+BJPnjxZHC1vLDFx9UmxnFYWSc/9fXXNP/yhFTucr6wNbSc7DDRZR8daAcGQkzGHn/TvqzoHjQzMvm2crKr4dkaF9/e8HNq02mWfoar37dT2VzVox3AjxnHj0NvsptA2U/ShVW9/J3Edfb3CAxKgH6m/9BmPU8ekFn1Gr3DD28uELtb1kCiEEELYRmLgDbAfo2RZtK1KWwE9b22Bar0r1lpB0woKkzIZBGOfjK/oPRnwSfy5c+cWR218gu4rID5pBE3c60qJJt3kqXevmERq9YKwCsNxPQdWRZSPJoIKo7KgUxl5+5mkCm159HKTd5+xU9FqhSbr6Fl1Jz83XFusu43KuEA/dcsi5/hTPunU33lD1w46URv3dlmp79uNtbdV8XR9RUjtDPpWpw8T6lT1LqNXW1lhHX3dccNJDz6ou6E+4uODxg3kabVH/GQs+vZuHhbQZlQXWpVUu2NMdCOvPoAKIYQQwgti4A2gydPYxHpZfAuhnNCqlE8uFcaNhdbqAhMnJkr1/RWcJocwZXLkcZUvRsiYEeHv4/iHJYS2pDEZlV5b4UiHSZ3CSGfVEPYwno6MIk04ZcxRFoXxcu2XVrmpD01mx/CVKp8ce9tzo3sIyk7+PvFeBWTwdyelN5wbnSo74X0S7uFVbzC0hZL6FKQ91t5WhXRV7/QNyekPIlyW/eJtszo3Klt4vVedrKOvO562ZPa6qyvz4H1KhuDQ7wjqmrcpxdNDAhmXHkZy0D/WWTchhBDCthEDbwB9OOMwPkjBxI2tSJpgMYHR5FowedakVNu1CFcNFIwn34IITKDIA+qHUlpowiVIT8bnGJSjyqTyORh7NRyTNw/XCsO5v7vEcS0voC+tamCEuPEhlinXGLV81N/UT/z7ipa2OoK3vbHVrHWVw0EuytUyVCmf1wPQHgmvtuag66qjFqrvg+536Kv2Majta9N426hG/jr6eqXV96Wn+r4r7aLqkHOXucK1Vl+kbfj412orlGvZdyxDCCGEV40T85vo+IzrFYWnxsCEx59sbyu+je5VKfO6YLVMK4I+wWWLGasQTEyPktEQQgghhBC2k6zg9aBtU0zMY+iEMfzdMd+Cq62MU7dXhhBCCCGEsB9i4PWgrxkexLa3sH2wpaxubRO+VTSEEEIIIYSDJFs0QwghhBBCCGFLyApeCCGEEEIIIWwJMfBCCCGEEEIIYUuIgRdCCCGEEEIIW8KRMfD4zPx77723OFsdvn7Jp+mnQp764iGOHwo/LMZ+4HgMZO37MWt0IH1+//33Xdn4GYQpkOayeiD9/ZZnKuRDfn1QdtVnddKJ6+cwOch896t/6l16qm1l2TbUYqzejgPIP6Tnw25X69Kp95nQZpVxcSqt/rXf/ixoj9Svo7RX6deEJQ5xQW2wz63KKuVfl84OEvS2n3E0hBCmcCQMPG6c+g2x/cLXCvlZgz7Dx9HNh+/MyPEj0/u5KU2FGxGf0z8M0Adl40uPrwr8WLXXq9y2fhWViefjx48XZ6tBH+Q3/NDTq9RWXnWYbPJzHnwFlroPh08do7l/ffjhh93xfmHM89/gPKj7m8bY6lZhlfvjOsbAgwbj7uzZs4uzEEI4ODZu4DEor8u4Ezdu3BhNkyeaGAF1ws85A/AmVndCCCGEEEIIYT9s1MDjKR0GHk/5+EHxqfh2IjmHp6Gk17ddg6doPLG+du3awmcv3377bWckgmRUntrqoq0tcnULTL2Ok9HoTyfx13YNbX2p4feLZPFtIaStfJAdV/PzMOhgGSij4uJ8RbWeg8ILrnv8vrpcF0O6r/lXWQH91TLKtXSHn65Xvdey41R3qstaN6y+8FCjtkOnT6dKE2iXQ3X94MGDPWkQ11m23pDXwys9ylfLUtPjuE9W1Yfr2etHcZW/8pIu5KoMwCqBh/F+VRlLDz9k8TCk53psyVDx8C2dqJxy0jN5v/nmm92xP9ga6g8qk7dB4fp2/4rKLDlA6bo+h9KjTC4XtPwclxmHHM7U9otcNR/pzHXraXn7q3jZCUdfpk97ekLpOrXcSo//+KsNKR793MPXfu11cFBUXUs/lK91f6x1h5NuqI/WGFjjeLm4Jt3oOufSnVzV/5Q2WdME0tHqHX1uqD2EEMK+mRtXR4K5Qfbs+vXri7N+CENYh2LUuLdu3XopnLh3714XZwoKS3pifiPp/LgmyH8+eC/Onsvk15XOzs7OnnOBv18H5O8rA5Cfy+W4PiWv0q6ykgbXFb6eA+H9vEJ4lVdlI1/h8Unf8weXV/k7nKusVXcVT6sPD9PSPee6zn+vB849vPSr8nIsWcHj85/r0lVtS62yEUf6UniXB7jueVaqTlVm5Qv13FG+nobSVLlrHsC55KplowxeDk9P8iltnatOgLhKu8I1z1vyV1k8vsK4DtCry8h1nORSOmoLhJWMrfS45m1f6Qm1LZerpuEof5eRY8+Dc78uXUrmPl3rOnBey+VpAnl6/Ug2pVupbZZjl7umJ90I8vfr0PITNf1abq57+rou3Xt8lc0hX+mkVfZaHkc6lc6rrBWXCzj38MSXLC4XeFzlixNVD5Wqt5Yuxqhxavnr9ZY+OPdycU44Qbk9jvJQ2bnu5yqXx6m645rXoeSULgjLucpR86zlDCGEg2K5UfkAYWD0gbMPDaROK269QThD1yp1AAfyasmqgbslYx3YqwyUwW9OoDit9ICbDdf7nGSsefux8BtX6waPn9/oKoTXTYy0dCzIT2lWeabIR3q68VbdVXSTrc7l9zbjx0LyIlvNT7pSfVXZdOyoDsnL5QDOlZbCOVxTmtIV+ThcVxotWnE8XWiFEbWOhOfbul51Qxhw/TpeFy4PeeBf5a35iZaevbySxfMn/RqnlttlEi6zH/Nfx85Qeq4jQZp9ddsK7zJLzxWXTWGkCy+D8DBKv8rtdSOGZCcPrgsP2yoXeHtrydnyE17/LWqZwOPU+DW8nxOuptVXF1Db2ZisXk7icE54r0PpqerZ5WzVpfyUVqW2F+Jy3nJ9aShOH/V6K51aLsqvMveVgeuKU+MDcVwXHKse/NhxXXNc0/Trkkv1HEIIB8Wx+5kEtl+Cb+9gu2XdRnHq1KnF0csMXetD+QJ5ffLJJ7v5y8GTJ0/2hNV2jvmNoTvnegu2hbK9xNNTnKdPn3b/W8xvHNwFX3Lzm8oixF60ReXkyZPdf4GcjvJ2kHEK85tYt8XGy6JtYOhOW2jv3r3b+X3++eddfnxgQPVIeI9PeqQ7lfnN+yWd+IcGHMp15syZxdlzpB90z4d7AN1Jf2zv/eqrr7rjTz/9tPs4D3z99dcv6RK8TfixePToUfdf18hHZdd2LWeZNiyd1jinT59eSqdQ2w3lRvZl6039oOqCc6VFHaJPuHPnzu6Waq5r69zQx2Bq2ufPn39JFg9Dui15wPtt1ePFixd3ZXbwGxonlkHto0Xtq8iMH3konyoDcrVkhrH+IFwPbFtFtzUfxuY+2alPjd04jqkjIL3WGETfGtLFEO+///4eGX2LnHSxTB+hfdL3Qe1RYwVxhsbA/fLOO+/M7t+/3x0zjtIG6YsPHz58SZdTaI0nQ/edFnW8xdX+JNAT9SvdaBtjH0rHt73ShvvuSZLd88Axlk69jwnV/9Q23irzqm02hBBW5cgaeNyk6kAKMuwYqHUT6TNm+tBkxffjO613HCp9hpVu8DLsuOni3zdJcO4tvmBY3XH8ouHOzk6zLLr5+QSFyfu7777bHQv01Yq/KWhjvKeCQ1bqRJNT/ve9z7ksMuyYDEqHtLXjwjrr7cKFC10b0YQYndOfeCCA4ccE+6gzNk4cBkxyWzL0PfBYFfpIK5++L9dSn8hGffpDnoNEMtF29EBNxtmyyEAFDL3aHsfGwP1w7ty5rq/RN+gjV69e7foLcmDkHYYu9wuGFvqgj+hBSN97abon64ER8ab0f9e73LIGnrNsGw8hhE1xZA08boJ1EAVuyjKERGvAHnpCTtq+glThJjlkNBJfqzctuBnpJqSBf+xpKAahVisOEt30qzz7uelVmFxgCA3BBBcdcUPnPxMU0OSHScph0VoVkH70MIAn5NQ5Tk/GaSO3b9/ujqVXVj72o8ubN292ExfajtLc79Nf6bT2ib5VkiFqu2FySZmXrTetGMh4E5wrLU1imfxrhZRJLHVAvhwPUdOmTQ6Vl3xb8oCvcFQ9Io9kdvAbGifWBTpykBk/ZMZxXMs1xJT+UGGlS8bOMvCwRP3KH/L0rZzRt7S62NL51L7HuEwfo68x7iqtZfoI/ZNrjGH1Ic+UMXA/IC950Dd0Tn9BDsqj/nIcYGWVusDQ6+sv/GSEHpaoroba9NhD3FVYtY2HEMImOHZbNLmpcdMVbO1oTQQIM2SkcYPnqWHdGsLXrxjEh57I8YVNwvjTRj1h5IbSmrxqe04f3MCQx58ma7VymcnZFJjUsIImZGStC4wUDHG/uaJnyuIgB+GoJ5+scSPnSa2Xm3ph4nkQtHRPfSGf5MIApc5xMrzQIfEIJ7QNzNuG6nEK5OflRiby2C9Vp9QNuqeulqHVbigzLFNv6JB694ko6aFffcEWXRAGOWXM8WCAMOQ7tgpGONUpMo2Vt9WvkQ8ZVOdAGQXpu8zO2DixTnwc41gyt/QMyFDHPjGlP1SoC8Zm6lugc/Lx8le8X/mWwlZ6yOvtDUPP+wbyDo1jxK9tkfgyGFfpIxilhEFWbyNTx8D9oLxVt+ovlGldOwoOCtpE1QU7OfraV33ooLGiD9Khvdb7Lul4m1qGVdt4CCFshGdHhPmNqffleEcveMsRZ35j7o6d+UC852XpPsjX0yOeQxo1bZhPJPbEw+EnkMuvITdpexl1TXLWsuGGID3K3sL1KVlJX7h8hMUpLf5XPbT8HNJxfUtvcq24Km+rnlSncsgn+upEeNn7qGFa7apCGVwO6bUlv6eFEy3Zqp/HI0/Jxv9WXYL0NVRHVadV7pafUL41jcqy9cZ1D+99CJSe+xPH020hnXraXraWLKByytV88KtlrLJ5Xdb0anjOx+SqaTqEp869rC3d4KfrOMog1L5crqH+oDLVNgjI4vG8bH0Qp6/d1vQqXi5kHNIVDOkBat26/FyrckoXNR1QXcr1lRGqTnXufhXVUZURP0d6EWor+LXqcqh+QfkSDlTOZZEccrXe5E/6rg8csitfyaGyu56H8uDY9QKEcX22ylbbpIcnvVqO6sc58Wq4EEJYJyf4Mx9stgqeqs0HYUblhU8YgyebPBHW0/EQjjM8Zecpft6NOfpQV2yBztgTQgghrIdjt0VzCrwXdevW8fkwxWFTt5Roa5PegwshhMOAh3FstcvYE0IIIayPrTPwMFb4AEOeBvezs7PTvbuBoYfjvRMMvL73H0IIYd2wcsdOCx7GZewJIYQQ1sdWbtEMIYQQQgghhFeRrdyiGUIIIYQQQgivIjHwQgghhBBCCGFL2JiBx1cb6+/gCH47KL8ts37QZ/0dqMOEd276fntrP1AupTslDz7sUH+HzH/z6yAgz6p7zvE/Knj7UB88SvIdZVrtR/VLe5wylul30o6b3r3PHcYYg66lp1/7tV/r/tf+vAmQ46DGkWXTpQ7U5qgb6mgbWLd+D+qeNMam8hUH2VbB298qqH9LT9vSfsM4Gt/D/tmYgfftt992/1uDHD+mfP369XwoZcv44osv1v7ZeiZ2/EDu1HSZOPNhB+cwBpOHDx92P0MhkIOb4FH9uAQ/2szrufn4xThMPr7++uvF2XO8fmmbtNEhI4Tw/EA1H0A6znpnzNbYflDwQ+x8mAU9/bv/7r+78N1e9js+0f4Ye487TPz4IFg4+jAGrDp/wzDUz1xtQ7sNYVNsdIsmkxkmNT7xoXPzRcf8flWYws2bNzt31Pn0009n58+fX5zNZp9//nn3219hO6n1e1zaaQghhBCOPxs18FglYKWOFTvgKTaf779371537vCUXMv2OMKK1hL+lGV9nrB7mk7Nz69r+5qWkuVcpgrp1dXK6lflqelVmYbygyqfQ1z8yN+vq2zuhrb6cN23enBMOVrU8koGuZr2GMTnN7Teeuuthc8LXJfKk/BavXvzzTe7cnEdeDJMOMk0VLdV7lpe/FwngJy0d/HVV1/tMfhq3Xua0qnkrdcBvyrz0IoR1PCO2oGX28Pian3V9JBXckpny7Q3IH5Nl3P3q7qo/WRID2rTLlctV61vv84xdcuDKpej1i9tlHCuT4F83i5Jk/KRHsee55AsQnHkWnk6tQ7UX0D51Tro02mrzsfiervGEb4PrvMAUD/z0qIvPcnhoKtWeft0NqQrePz48Z7rtSy1bnBCaastokdd1/jUh6dbw3Hu7aTWB25ITuIji/ol5zhdl/+UstW8weMprQrxtHpHOLUh1Zecl1NUufrqtg+P630cOHdd1LYtPEyVkbKRjuTU9dqOcUrf6wOkXy+b6qmP2lar7FVvOKde9/h98sn1yYU/fZs+TrjaLmGoztehl1quGpfr/Nd1z79FLTuur52D5HM5qry1H+FcVzr367V+6/WW3lRO9NpirGzS1VBZahq0y7Amnh0BEOPWrVvPLl++3LlK9ScsceaDQHc+NxJfitfyc+YTqi6MIE38oBWX/BR+Z2enO/cwXFP8FoT1/MD96nWXB7ju+UkG/reYG8l7dKTwShP/Wgb5eZqua6VR03S5SY84LbyMygs5BbK5PGOQTw3Puadb82mVsXUdp3K6DsDDg5erBXlVOUlD1PiSQXokL85re/BzruNULsXxcjq6rjKpLpWmznUdf69XXZcextJTmVwP8nMZq66J7+e67vpy2fD3PCRXH4TnusoBnCs9yejXiaNyQa0/aOVJONehU3UhuT38VFm8/KoH17HTus65yqM8PQ/VgfDyc01hp8St58C5l7tCerpe9VbTU/mkMz8Gzqt8rj+npSuXhWs4ZALVoc7RUU2b69Kd0te5wM9lrtQ6Jz5xJJfnqzwkEyi8mJIe564Hz0MQBn9Qvh4G3Xk6Ldkc6VOo7l03pOl51LKofSgPrknGFoRVuYHw3l5UhiFI3+NIBuWrcnk+tazgeRO2labrgnOvI4drOOlB+Sn8WH3W61VeZFN5VK8ui1+v1LJ5XmN1vl+9kI6XS/GlJ2RppddXFsnr+dU0K8pDugY/lz49vuIIjnHKt9avzj0N9FbzcBkqU8qGLj2M4kh/yqdex4X9cyS0qMbWqlQ1AG+IQMNR4+O/d0po+QmlWVEeNS/w/GqjhL40hccX7te6LvrSJnxfHNKrgw5hNfjVjgatcitvXfM4pO9pAtddL46Xkf+cO5KpL36lpTP8arqcSxetPLxMLb0AZVQaretDIKOH59jlbund8yM8eXq4Wg6Oa3239CNcJ4Kwqsta7y0ZXQ9j6Ule10MrzZqv6wHqdSAflZP/tf6HcBlFTU/HDjJI91XPtX4Ffn2yST9Ks1XnY7JIN5W+eFBlB9ex5Kr15rJ5GtTVWJ17XI5VZkH4WieOtwmlpzRqfuAyuazE4ZxrXpbajkWfHr0sNa7LpnBOlaelj1aZhMpf03ZZSJ98oCUDaRMepqZX66eVbqtsHs7lEoSp5RcuJ7TiS37SaOUJLpcfV7zdOKSp+uB6X3zRKpPHU7lczpY+XZ5aNpVDaep6H14G4bpo5e/X+c95H8jp7UXxnFYeUPXuebXyJR3peD96qXFFLbfLBp5+pVXGvnxEK4/aRyu1b3As/QsvB+nX+nfd6Jj/fUwpG3nW+uJ8qG1wzcsSVudI/EwC25fmDa57cb7y5MmT7n/96ADny261EA8ePHjpQxugPPSfpWYtG7e2V508eXJx9IJVZeLDAWzzUn6+nC4d6Joc4fvyQ97Tp08vzp5z5syZxdELTp06tTjaq2PlwZYxePr0afd/3hl3PyjBhyOuXbvWHSOHtgj4VsQ+CN+qU1B5p9AqU00XHj16tDiahusFLl26tJsG7ZTtQtLRGPfv35+dO3ducTbr9HfhwoXF2Qt5tR0CNx8gX5LZy8Uxbdh1Veubd8D22z6E8vatFqDtFAfV3qaict64caOTRen5tpU+WttPlB7/vV/KQV87rfUrhvTbh+toTJZVxgk+hlDl0rjmdVD7A0yto764kok6d3npW7T/ZVF6NT/apdLjdQD6I9y9e7frI/RtPoJEfNqOb611iDc23tQ+AKoXhVvlvtIHcoPLAK37Gygcebq+5Tc1vdpnppZtCn39qkLaVU6de39ohZkiF+Nva2xAF76NbKhf6z5e67SVrsupY9++pq2LwD0WObzdMvZ5255PpLvjPmo/8fuF8u+rz2XG2Sn9Zipjdb4fvUxtL0P3i4qnJV1NucfVPDR/8PJzrDS9D4uh+QDtyOcwLpenMTQWTS1b1SdobtNqG60xNKzGkTDwjhoa1BhQ50Zw58YGy/3CwKS8GKA06VFnw0/X3a37K1PqqBgxpL+zs7O48hwmrnRKyYXcTJD4qAQTWwzAbYevg6Eb3WzRV2vQB+nJBzn05wafDDv8Va/U91FChh1IxnUw1t6WBT1LPvqsbmL+wGRZJFt1rXc/odbvOhmT5bDGiXVCP2rJfBBQL+RHv6Serl692o1pfASJSSH6m/KAahU2cV+pUG5koJz37t3rZOD/fjkKZdsmZNgxD2BMRJ/0fYf7Lvdc2i33Xd1jiEvb1rcNVmGsPg9inF0XB6mXVUAvuHXd49bVh9WuqvO5yhjrLltYL0fewNNTJk2UBedqiK2nQzW84090WzCoqeOI/X76u9Vp+tLEn7zpwAxS6ECTkqkw6NaXVcdWsRjUNUHUJ47r01RNkDDoGEiBCRIflWDwbK1ctEAfrTqF1hP/PsbKtCq13JSttjPKgK7QR1/9UH/SEyiM2gPnrLAwMHp7aLVPT59jwriuan1TJ612B8u0D26MPAklPxkKtawH1d72A7KSNrKxar8K6A89TqXWr7PftjomyyrjBA8mqlx6+rrMStIqSEf0kXWg9Gobol3SzoAwHDN+6ZwxjfbNpND7aqWlq2U4iPuKHiTUOm+NH3D79u2uPyCDHgp4v102PXEQZRuDuqty6py+oLGxFUZtZQjG+1YZ0MXUVQY9LKirNWO64Yu7GCfoU2nUtqeHrb5jgPbLKhUyqi77qP3E7xfL1OfYOLvffuOM1Tmsqpf9tpcWq97jqq41RiLHWB8W1c/rF5lWvSeKddy/qZfaNlplCatx5A08Bjcas994aVhaegcGW87VMTUh7YNOQcP0r/noi0KkwTVvZIQbu8GNwc2CibwgP0+TQdDloQxcZ9Bp6QCQ1+M4PKVikNYTNf57/i2q4YsutPQvGCCQhbQ1eKJPGQAacMbQFg/qUlA+0p76BH1oC+J+8XIjI2VjECM/9O5bUnyyWGFlQNtYgbD+e3iK4wMjq2UtvK45rrqiTqQP5PM+UlmmfbS27NW2qPSU/7ra27KgO9cfaaKHqROySqudaqyQ7pxavw6y0GZXZUyWVcYJbQ339syqgT/5Pkh48kudq90A9de3Ij5GTQ+90C79JyqoH/ykJ41p6MH7akW68nqv7W2Ig7ivSHav8766hmq0SD9C6dWxZoyDKNsYY/eQVn8g7NC46DDeUwYvP3VNWafe54C+pK1roPvJENSD9wn6Zx1PkYF08JfRQvvlnHKP9V8fa+v9Yqw+a7sfGmf322+csTqHVfWy3/bSYtV7HHG8jMTRCu5YHxZ+P671y3jIda8T6ph7xVTWcf9Wvej+QxqtsoQVmVvfR4L5gPLSS6HOvOPxKGnXzRvW4spz5oPo7jXCcs7/IcizlebO4kVROdJCNo79usvQ8qt4GSQf/4WuyZGmU3UwpK/X/uKjV85B1SlUP+lRfvznHH/qT9ekZ5xT20e9zvm9xQvM9Rp51HolrKdFvZI/7dOvu0yk49TrOG+LpKn0RCtfhantWe1fjrjI4HK00tN16XWsTSsccaGOC1UuoNwuR+3XyCVq2HoO1U8yufP8vdzEq2UEpeHxHF1XXKVZGZMFkMGvu/5aSKdylF9UuaD6kZ/ikJfa0JS4QBz85Gp9VLxNTEnP6x8IW/0VZwzFlXNZa5rgfjUuOvN8dZ0yOYTDf0gvXueEdx1x7nFr/5AOXfZWerpe04NVytZKhzBVh47SVxjJLlfTAy8LzmXgGnIM4XHVtoXreQjyUBrk6flSFvwrCo8jH+mQ/4J0qkyEGZNJYZQ+zvUyVp9Avh7G663qpaaH3H0Qz8tU28nUOl9FL0BcT3+szbb8nFZ6/O+TRem5fmvYqnulqTrgmHRqGEftTs711eqvLcbKxnXkcKpfbRvE5X/YPyf4M1dmCMcSngKyerTME9UheII0H+i6LZN6IrhpeLrFk7GhrsqTt/mAvTY9rAOeCKLPo/z+12FBHbKaG12E48hRHF9C2EbWcd9Mfw2Qj6yEYw3bP3Bhs7S27LD14rBfaD+qpJ2G4wD9lsmhtkyBtoplshhCCMeHrOBtKWd/8A8XR68O3/34jy+OVicreKuDDE6eID5H7/B8/PHH3f8QjjIab5xME0I4HLKCF9ZFDLwQQgghhBBC2BKyRTOEEEIIIYQQtoQYeCGEEEIIIYSwJWzcwPOXucfgZe9Vfx/psGD/9DK/77JM+Y8yejnff1dlFao+1qWfVeQ7Du2tBWWkvPvB9U571ntkLQhb378L+2MVndJW/beTtpV1jQkhhBDCtrJRA4+J49dff7042w74kMLUl2OZjOXLei+oE1omrP5jq4cNP3TrPyh6HMC48x/VXQWMOT7pPxVe5M6rvOEw2PSYEEIIIRwHskUzhBBCCCGEELaEjRl4rN59+eWX3W9l+TY4VnHcDW13ZAWMML59jPAef2yrGnE9/Fgcrmv7lJxv+2tt0fSwKiuyf/DBB7Pvvvuu8yfPVlz3Ix/CSuY+vbl/H4Tpi6OtidJvX5oe//PPP1/49lPrBid0zOe5KR/5oRt05Dqp8au+at1QBufBgwd7rg9t2ZQeQLqv6YOXq+ZHfA9f9ah05aRzp+qtr32Sllbv+KkHbWUjvMevOnPQPX2SvklYx8tCOCGdiKojD9uilq/WiV/Dufzoi3P1Cb/ucWqaNc8+ndaygfIT0q/SqOX3NsE19Kj8JWttB1NWqbwMLR3XNFthavsUhJVswv2Udi0ruFy1P6h9yxFfcA15PIz3F45bY0IIIYQQCvxMwqa4fPnys+vXry/Onj2bT0qf3bp1a3H27NnOzg77vp7du3evO+caYXTMNcII0sMJxfcwjqcnOPc0KqTnaSKbn1Mej881L5Nfr/nXuOB+Ko/rDGoe0k0fpOdpzCdNe9JQfE8TOT1O6zp+fbpulY3wNU3VNZBmzcPPpQ/FUV1QHqHrKiNOqJx9cF31o7y8DLXMCqP8x/Ss8IrfkpE0PM8ap1JlUJpVr7UunFpXHHsaNU3pHWr+UPN3al6eFozVuepQYVo69HoE8vM8x3Tq+QHnnh7pKz3JX/Uv+XRd51Dzb5WhUsuAHj3dVpk49/ZIGfzc9VTrBdxP6XsY4nqeCiNdkD7nDueSWdd1DlVGzv16CCGEEF6mfwZxCDA58Ju3JgION3yfzOkGj79PXjSZqJC+5+G08vNJTIs6AQEvh8dHbk2YHJ/w+PVW3u6nMnq5SaMlL+n6pNRpldsnTtKv4/m0ytWSzWnlSXrSGxDfZXaZYKx9kJ6HF8TD1fTl10oXSEvlVPk8bKu+CCMdtNL1MhHfyw9cIw1QnpVWPFHlbMmocvfVVY3DcU2Dc5UDnVaZ+3RaacnntNIhfdWj15Go7cb1uIpOkU/XiM85eUg210XNG1w/OvZytfImjZacoPqrusFPebvMwuumTw9Kk7i1XtzP0xKtOIQhbD0W6EP11yozfp5mS78hhBBC2MuRegfvtdde6/77Fh/w7UrzCUW3RQfeeOON7j88efKk+694cmw369t+pfx8mxHhxz6scfr06cXRcy5evNjMgw/I+BYjoXxX5eTJk4uj2ezRo0e72+ncoae+bV7Kny1XHp60xHwitTh6gfTSKpfL1EJ5+vYr5O6rmxZj7YP0at2A6/vUqVOLoxc8ffp0cbQe1BbH9Hz//v3ZmTNnumPh8q/SpiuE8/KDzpX+FGoa4O1F0CfnE/Ku/SDr2Fa6Gzdu7Gm/vmUPlO/QmDAVdLGKTt95552uruDu3btdf7906dLs4cOHXRzkP3/+fHed+q1tUG3O03d9jrWDCvlCrRPvs/TVmqb6KO2drcqtPt6q5/2CzlV2thC73tmSjc7E0LgTQgghhGkcKQNPkziYG5+da8GEgIlAfacEP8Vz1/dVSxl2mmQQ9vr164urxwdkrmXG8RXIFjI4mFgqbGtitU5k2GGcK08MgWWY2j6OCuvQ87Jt+iiAbMh47969XeOt9lWBQaEy0R7oi4TXO3MHUefL6vTcuXPd+ICRQl1evXp1duHChe5LoxhbpOcPm0I/GmerCyGEEML6ODIGHhM6JoNMADTRaj1RZzLFpJDJFU/d9cSfp+SahE2Fnyi4detWN8HQk+sp8evqwVdffdV88s0T9GWePtcn7jAmD3G0ujAF0kNvOzs7e2RDd1NhclvLNbYKhmHHhN8nc8voZkr7oG2ssrJzEEzRM6tAdRXM5V+lTVdolzW+zlurmetEP59AvU9pozIMMfRYYZo6JizDKjpFh7QtfUiIc4w+ZGM1m3oUrTZYV3QrY+2gQt5Qy+BtixX2mqb6KCt5rBB6+MoqY9EQKrtWH0MIIYRwcBwZA8+3DwmfOFV4Ys7KFU/8dc7EsMYZWj2okyBWmZi0jYGxoskOBiZx2GpWYQWNSRTpCq1ktWDSRVpKWxPcIZSHl5F45FG3u4EmWr49b2wbXYWJe82TbWxD1IkvcYcmmJUp7ePmzZt76gao4776P0im6PnatWudEUh9AXJr+zGs0qYr2gLpbZD0SPcgVp20Ku51wMOY1lZlQCeuF+IhL31h2TFhCqvq9N133+3qRvGoX9Kh/qhHoTbodcoYxYOkPtQO1F9rO6goby9DlZ2HV54msD2SMZP49GH6pMfzultlLBoDHaALpQnUfV/bCCGEEMKKPNsg+uCAxODleZ3juD6fyOy+ZM/1+aSkOxaEcz/CehrE6WNuYOwJS1zJxLUWXONjAh7Pw3JN8goPixOevz4+4GmTjqdHGPxbsimOXP2YgeN6x6Ej8pEeW3ru072nwf++fCW7HPkpjlDZVV5dd7kUH1fbB9SykSZI1y5fy8/xMkv+KXWNDDCmZ6h68TwFedQwQxDfw3k7w1WZKy4TcQkvPQr3UzkF+So+biw/ySsn/UFNi2ukpzRb+uLcddSqO+J7uh6+hdJoyVZp1buouhKtdtAK53gZ1K5a5fYwlar72r7lT16cS+8tnfp1QZih+vTwXKt1Wf0Uv4YLIYQQwgtO8Gd+wwwT4Qn3fMLSPQEPYd2w0nbnzp2ltq+GEEIIIYQgjtRHVkJ4lWB7XN2extY8tgOGEEIIIYSwCjHwQtgQH3/8cfefVWG5W7du9X79NIQQQgghhDGyRTOEEEIIIYQQtoSs4IUQQgghhBDClhADL4QQQgghhBC2hBh4IYQQQgghhLAlxMALIYQQQgghhC0hBl4IIYQQQgghbAkx8EIIIYQQQghhS4iBF0IIIYQQQghbQgy8EEIIIYQQQtgSYuCFEEIIIYQQwpYQAy+EEEIIIYQQtoQYeCGEEEIIIYSwJcTACyGEEEIIIYQtIQZeCCGEEEIIIWwJMfBCCCGEEEIIYUuIgRdCCCGEEEIIW0IMvBBCCCGEEELYEmLghRBCCCGEEMKWEAMvhBBCCCGEELaEGHghhBBCCCGEsCXEwAshhBBCCCGELeHIGHgfffTR7L333luc9UOYK1euLM5e5rPPPhu8Dq+//vrsxIkTvU5ycEx6BwF51Hydb7755qXr1REmHA32207W3c6+//77PW2EPjGlf01hrA8eF9CR9KP+ht9RpNbnQaA8cOtqK4fBQY3R+2Gd/W1VNtGmj2MbOoy+tR+YrzA/WhdHsb+EENbPkTDwGLw++OCDxdn+eOutt2avvfba4ID47bffzp49e9a5nZ2dzu+7777b9fv44487v4OCm8n9+/d388Pdu3ev85fcb7zxxp7r169fn12+fHmPH2HC5uGG+fbbby/Oloc6//DDDxdnB8MXX3xx4O36OMGk7uzZs4uzF/2NseNV5fbt27tjzHFpKxhSX3/99eLs6PCq9rXj2IZeJQ7jXhNCOBps3MDj6dS6jDtx48aNtae5LniqyQ0QI9PBMMXYRO7DfOIaQghhvTx8+HB25syZxVkIIYRwuGzUwGPlAwOPp30YPcvAk9u+rSA8hSe9dWxFePz48W4+uJom5359aOUQw+2TTz7pfYLGKgJy8xR0v9RtqM6QzNrWU8OA69zj4M+551n1QB3pmpwMWW2RqXlqywxpce4MbT/C3+tJ6TqSGWq+Nb7OW9f5r9U7/CWz68r9K8iAUc8KMuFUnppf1WcLD//5558vfJ+DPN5PhuSjHvvK26KG9fDkSXqOwvcxlF4Lla2GrX1AcqBjrd69+eabnW5reyIs/p5GrYMqp8K3QEaco3Yv3Q/1kYrkc6qfyiTn9V9BNsamL7/8sgvbJ5O3E/IinnTUl77KKed6mFIOpS8nnZAO8iI3YcQUmT2M5OmLA4Tx614vpOXpkcenn346e//99xchXpZpqD1Dq20J1avSVNmrnh88eND5O8uWAzw8rg/SbrUh0vH4XnbVh+qY/PvwNLy+oZYdV9Ma0imgL79e24AjXbk+Pb++OgKFr/6iL01Qnk7Lr5UH5W3da0IIW8rcuDoSzA2bZ9evX1+c9UMYxL5169bCZ24dzs9rXK6T5hg7Oztd/Pmgt/B5Af5+7d69e4PnMJ849pZDeQ3RJzdpTikPVBlIEz+oMvOfc+lTMnpexMWPa1B1RlhPo6bp+QvOlYfCexji4Cc4RnYxpI96jXPiS37lx/9aFlB4wbGf97UDUfOv1ytVP2N11KJer3WGPMgFY/IpLv4gHenc44/pT7JLDnBZKlPqo0J6NU7No+qwylXzlQ50rusKX+tI170enZo+eL3XNgCcS89VXq7V9uB+VV4gLaXXwusVOHeZVGalSV6cq120kNwexutmrBweFvB3mer1qTIrfcmHE608XC9Vt+Tp55WanuJ7W3Bq25KMklnxvdwtPXPu6axSDq8LIIynUanXiUuaQnlKTl13uVsQxuWo6dY0pEOVReeuc8WR7nCipl+RrrwO/Fzl9OuAn5cDXQ21NeWjOJxX/Ve/modfx9/zCyFsL/0j2CHDAFQHwxatAU6Dt9Pya6GB2Ad+UQdKwE83DQZK8nGUXospMvUNwK1yt+jLX+WrN2xwuVr6aOVNGOmBa/W6l6OlW09TN1jXpfwUl7DePlq6F1XPhCWuys31IdlqfI6H2kENP7WuRK1zjofqqOLlEapHryPpb0w+6cvxOH48RX+1PC5XZUp6FWSp5Wml43Jw3eWQvhSvpQP8kAXIr9YR4QnTR9VDladS9ezy1rTA/VryKY1WXjCUn/AwpE+YIQij8I5kmFKOWg+OX58qM+k7VQa1hXrskKby5X9N02nlOUSVB7wPSCYvJ+GrnhUHvaxajpYsQ5CGy0Ge6jPC9cFxSy6nVTYgDdJutefaFojfKgfhFNbllF8rbWjpakod1TigvPvyxE+yV/2C+5FOKw+l2SdDCGH7OJY/k1A/hHDu3Lnuv285OHXq1OJof5w+fXpx9IInT550/+eDZrc9z7dDsOUL9rP9obVtYypsM5kP4IuzF0hnyFzLJF0tK7P0ALVOzp8/3+UFuuZbZNjKU99DbNXZ06dPu//vvPNOFwfY/kLaqvcK7zMC4bTN5tq1a7OvvvqqO2b71KVLl7pjyeZbfLTl0vUx1A4qvAOqbUq4se1YlWXriI9M1DZz8uTJxdHLTJGvvj904cKFl+oLpujv3Xffnd25c6c7Vl59HwiaWh+V2v50ri1SOPT66NGjzn8KrXeo2LIN6K/W0dg7V64HteGrV69255J3rI9MhXhsx1JaOI0L6lNDKExtR5TRZWqNNQ59rtYNtPxasJ0dPagM6s8tpso8Fdqb+rjrEYdM3h6Hxmy2alLXilu3Blam9n8vZ0vPPp6uWo6bN2/uaUdDfbCisHVcp2yUUYy1Ifqsj1dypEF/9HIjP9eUpsrd6q/gcYfuPy2qrlrzEK8jytFqJ8hKOXhvE2o9junHad0LYGp/CyFsD0fWwGOQrAP6UWRnZ4dHdi+51oCqG8DQJKVvQnSc0aSViTo3ZfRz/fr1xdVpyGgjrbt373bvKg7piesYuzgm1hgU3ORpV/zH4AO1M26i9+7d62Tj/35ALrUD5NBDgKF6P0zWKd8U/WHEUO+kj3E9VPfrqg8Zdv612mUmSgeB9EAZaxteRx+pSH/VHaev7+rrpjjqjwdo6AkdHhbk6/qT48u0U1Ec6lQGkx52HBarlINxV+GANJD9sEFvLrOc3nOUYceDO/zpQyGE8CpzZA08n4TKiXpzbz356ltdWSfc7FovsveBfNyoeCraggkwxgcrLKtSn45WkFmrEEK6cv0tS60TX0nkKfytW7e6OlQeq0zQ0B1PKJm0s6I3xMWLFztjGcdqIjCh1gdsNMn1z3rLiKz62Q9MnkibPKa2lWXrqLW6NmWVBvrkqytdfU+Gp+gPmZW+G9ct1lEftC1WJnj44npZ56QPGatcY6uD0gMfwEE+b8PL9pFWXXj5uL6fnw/QykNtR32rEH1Qlv2Uw6Eu0Q/9Q2O+sy6ZHVZ1kGeV8aoFPx1AGTSWtVhljGa8qzL6PXAd5UBuHEx5GCRZ672YsuneMAVWYBnz+8BQpmzIpp9mqG2gpdP9UsfcvhU40beSjOzct1srgOD9obVLwMOvulodQtg+juUWTSaJ/vSTp95MjhwGcyZTB4m2r/jNTisHfXADYgCuEw7Kw9NpytF3g5gCk2JuZsghtDrAjaDKjF9Lf8vidUKa5CFDlrL65JctSoRfFgwDJsbc8Pq2ZwpWS8gDJ2NO2zyZXIl6Q0QvyL4f+KKZf9UMfSBHa4tQi2XriDpHJ17nQwbwFPnQk/LnP+etr79O1R/yyH9oBWkd9dGaWNavzO0XlQfdgXQ0hutBBiws20coo7Z7Qt32p62NPk4SRuPAGKRPP9GWcyCtvnbQh7YDuxy0U41/Y+UgnLdr9Exbb22nW5fMDm2V+4i2dAv06HIN4eUVyNSarMMqY7TGO9cfccSq5eC6p6l6rNtg+0Bm5PB+Qtl0b5iCtrjWdoBsyKO24O3a2wBIpx6mtq1lQaaq76E6apWDcYn7NWMB7bfWUZWPMZp6dn36OKE8XC6O0VUI4RXj2RFhPrB1LwuPQRjcfFDsXj7GzQfVxdUXcP2evTTdh16Gng+KC58X4F/TqH4cSw4c+U4BmT0ebgjKjI6m4vrBefmqzK6/lj5aeRNGelDdeZquI9Lya4SXDFzTdX8hveUHij8FdOBhlabLBi1debhWnOqnuPKradb4jvLDqbyE9/itNl6p4fmv9FRHYkg+rtX69Hqo7WFMfyA/l6GPKek5tWzQ0h9hSFsQj2v4Uz6OyQsIV3Ve/Vp5uF76UJ6OtwEc6Sh9rum614PribyrfCqTuyGQqcqPn8f3/JXnGLVsNc5YOTwuzmXwOhDLylzzk97UFkBtRc7Dt/RWGYrfotW2REs+qHomTg23bDlqmriar9NKQ3LIUTbBtVoffXgaOK/XVp2TLv6i6lTXVEZPr+XnqJzkofSm1BEoPK5Vdq8j8qnt08tKWMni6Lqc8PrsK1sIYTs4wZ95Z98qeLo1HxQZ1RY+4SDhKSRPH7U95iDhqStPY331I6wXdMx7i3q/ZV3wFHk+qRhcwTvO8LSdsWeZd7NCCMeP9PUQwlHnWG7RHIP3eG7tc8thOHpoe1aMu+MHW6l46LItxl1rmyvb7oa2xoYQQgghHAZbZ+AxkeSF7HWvPoTNwqoS71XcW+GLimGzsHLH+yl8QXNb4Mk9775QNhzGK20zDx9CCCGEsGm2cotmCCGEEEIIIbyKbOUWzRBCCCGEEEJ4FYmBF0IIIYQQQghbwsYMPD5QoPdXWk4fMODdK/9Nl02i3wACZEK24wo69vIcV7ahDFPgIx76XSz9BhR+cBh9ZCgP6gB59gNlUnnWkV4LvnxHuq67IQin9kVc/6jKukAO8lHdHhTL9JOxse2wZA4hhBDCamzMwOMjBbz+h+PLiMAn1OV31D4/zATJfziWj7j4DzIfN9Dxcf8gBBPRVX/A+DjBhJqPePRBO9zkR4VoR7SnVcFQqD9MvG7QIV+51BjDz3ocBZADeQ7y66IYpl9//fXiLIQQQgjbTrZohhBCCCGEEMKWcGwMPG2twtWtYtqyJsd2qiEURuF5uq9tR+6Ujq/e4U9+vo1JcbW1TK5uYfI8eaqOG5K1pofzrVb1ek0L+fw6cgrOPS3Ko3DEIy1tSZN+a36eHnHqdc7dr277Gqq3MZ0i7wcffNCt/uIvWTwsbowa3rfhIQ9O19Tuqky1PbaodeG02oH8KJdW71jlauVF2vLnv86VV9U7uCyt6+Sv61W2ivQhOK464rwF9anVO8rp4bwMuIrLiPP26JCH61B1rDYmJ/8pDMX1+gC1c5dPbUvpqF0rLv+VtqcFrfbXqkNALn7OgdVLD+Pp41rxkU/Xx3RT68rrsVX+EEIIIRwgz44A80k6+7ue7ezsLHxeMJ+Y7bnG/6FzuHz5cuf6IDzpOvjdu3dvcfasO/Z0dS5u3bq1m4bk9zS57uGvX7/evI5/C5WLtAVhlWbrOucqA+X3tF1e8LBVVpVVOlRertNaHo4JI3la5SMM/qA0pV/wepui01omTx/I22Wu1PCSSXqRvl1G6cb1Tjpezkq9rnQFMtb47iddSA7JKRm8HNKRl6vmX68rjvB6AMnrcRzpRHDs5y2dObU8tf1BlameKw2vK6fqUOeqa0BPnqZfRwe6NhYXPXEupF8PL1mqXMTjXLqo5ZJu6nXPr4JcXv/1XDKofiWvh/HyVZkV3vH0QgghhHC4HIsVvPlEY/cdFf7PJxuzJ0+edOc3b96czScSe95h+fjjj7un1kNPjN99993F0fOn8XNd7Hkn7dy5c4uj6SCLuHr1avdfMvAE3X/omXemKEcfJ0+e7GTyd4UuXLiwOGpTy+AMvTN4586dPT8gThrzydzi7AX+vtu1a9d2350U1IPkPX/+fPf/xo0b3X+4dOnS7NGjR93x1Hob0ukYpDf0Lmf9QfzWe1DUkfujA3Tl9UK9Ur8tWMlAT8giOCbdujKzTrxctHXpjDypW7+utoishKMOqrzLQt0KtcmnT592/6fi+b7zzju77ZcVIWT0uqWOGCfu3r278Bnm9u3bnR68v9AeSFeraX2MxaXtU+fS+VdffdXJpvfglH6rvQFh1b4I4+Mdbc37mcq9DOjVdUtadSzi3MOQb+2bgpX0ubG3OHsOfYRxJYQQQgiHz7Ew8M6cObM4esHjx4+7/0z6mGD49iBNVoYmlKdPn14cPZ/gCG1dUhqaWE3h1KlTi6MXIIMmdBhtTt+2KpBMTKhULm0TxY+JHZNM5ORa3UKFIYLRobh9k1bSYjJaZXediCo/tCZ8Qyj81Hrr02kLjEFPc0w2lRHdKQ6obUGtI3RFPSg8TlsMW/mRlsrlkK6M3XXTyk/GEXkyUXf5cZQLWR8+fNiFq/XfSnMI719imb4EVQZkBKVTy0B7n9oeCVfT1/mYnGNxZZShS8Kibx50YAQCRmjrAYoYGu9Iq+q2FX4IyepbMNGtt8fa7mWM1r4nfdMHvC7oI6qvEEIIIRwuW/GRFZ4Ws3pVnSYlU5BhxyoTcTc9OWHihDxMFFU+X2UDfYkUf03a9b4UZZceSEMTME3IjgLrqDeHFRWlAZSbMvchww483hisVii8uzrpP6qw4tOS31f1jjrUbasMR+Xru4wjrNhh5PmKHA9aMPRYkdwUMuyQQ3pDn/uB8dLrQS6EEEIIh8+xN/AwzPb7CXBto2NCom1JQ6t/y9L39LtvyyRoGxgyaSuYryw5MmwwmLRK4JAP15nEaYVGMPHEv65aHLQhuI56G4Ly4qC1eokfRjH1LqNgSpnR1YMHDxZn47Da0npYQJ1o5aVlGA61jf1Anq02IrQ1uepi0w88HFZ1kWc/bRSd1/g6b60aO1Pisp0aPdPGtbUao4/VO2RfZQs4MCbUcWCZlWDkZKWThxTexmr91vbXtwtBbbeOKyGEEELYHMfewNNWRP9qm77oVidhfWhS5uG17W5d8BTfn9oj49CkmYm4T7KYYLH9UFDeWkbek9HWKv5rNQ+IT36tySvvaPlv/JE2xs9Bso56qxDX32tT2q2tpfJzo5sJ+BjaBupGo1ZEWmB8YxT6FlrCUxdaMaOu0YVA7qG2sR/Ik7Rr20B+8mXCjhHhuvCwRwEemFQZgTJMlZUtk7Rxby+kR7pjK8hT4lLv6Jl6lTHHe6ucE65l1E+BMYT2pz5C3XnbGUP5+gOd1hcykd3LR76+EunwTiDjh/db0tRYFEIIIYTD5dgbeEyoeBrt70UxAWL1ZuokijSYvDARVxqkyblWmbSKxjU3SqbCyiCTQKXPhxeY6PW9P6PJv8JjcGrSz9Ny5GFi5TKDVqMwDpn4eXzK1Jq8khdpKSzGV99kbl2so9746Ao6Ia4MWNJQenoPqJUefpTZ3x3CeKNOqJs+0DsrpR5PW936oC5wCk+9eHj0T766TpvjXCAr5+S5DmOLvFttQ22cNsTkXNeBdnZQ0BZIH+dGxRBVRhz16R8GGQKd1vZCelO2eE6NS51RJrU/9b2LFy92/1dB7U/9nrqj3EPGFMaZ6huI7/0OeejvvrKrfqAwjF19utX4IZlwoAdUeoCw6oObEEIIISzHiflkLy9KbAgmZayeyZg7SvAEnonp1AlzCGEzYPRjPE0xTkMIIYSw/WzFR1aOAzzBrtsHWQXQp/83CYZm3bLHFjS2lIUQjg48ePEtlRh2rM5t8qMtIYQQQjhaZAXvkMBoYjuV07d98LBhksj2KqdvO2cIYbNoC6Rgy6W214YQQgghxMALIYQQQgghhC0hWzRDCCGEEEIIYUuIgRdCCCGEEEIIW8JGDTw+7qHParub+qn0dUK+q/z8wUHDx0+qfvo+N1712fp9K3Q79En1VVhFb0dR1xX0zLuTQ+y3HNSH6osvlvK/r36nMKV+l5UZHSwjE2U4DvW7LNtYpspR/kkDZEK2sT65DMvUKWHJv4+DkG8K9Pe+e+aYzOtgSh6uZ+5prXuTOAyZ10mr3r28LZYdU0MIYVk2voLH7yfxGqA7fl9qHb/3ddzhJshNwHWj38DymwnH3GD4yQUPywdc8D/IGwk3Mn5TaxmYkDx+/HhxdjRBZ/XDM5V1lIO2Tp1SX7R51dtBQZvSbztOgbZVPw70KrJKOw9HG/rbp59+ujgbhw/Z0D/Dcrxqeh4rb8bUEMJhcCS3aPJ1ST797UbMqwYGBj9VwI+OO9z8+BHiu3fvLnye/5AxhnL9PT1WhPDnR4pDCCGEEEII28+RNPBYwahGDLBiwoqUnOCJWWtbGmG0VQKDyeMObREBbROR8y0wWjGrYcao8rdkrjx48GBx9AJ+0Fg/QI4MGMR9P5aOP9elh1XwbYQ46YI0taqBvwxy6sPD47SKSJmRh5Urr4Max417ruEIr+uc1zpVHqKvvQBptdIE0tHqHU9aW9ufVimHI9kBHZKe2pXriry9HFWWZdogcvLQgIcnpCn6ZOa/njSjD7Wh2h48zhRqfjiVWXqp5cLf46muRA3vetI1p/pxXNPgHPjfaucOYVRfiu86Ft7ecCo3UCYvY61roXYiV3VRr+NqWrUOVVbx+eef77nuclYoE+n1tVOOCaPrknesHODXkckhzRqn+qk9yXEdCEM/oD/gPwW1D8fTrvK1IH+PgxPSh/KRq7r3NFo6G6PKUNP3esTVdlzrbWgXw5CeXQ7VC1Q9V30MlZmwyKu0lW5fOxBDeahtOy0/GGtX6K41po7J12Ksnlr0hSe/qlf36+vDVYahtlqvkwZO13zMCCGsgWcbZD7APbt169bibC/4z428xdnzsNevX1+cPXt279499nA8m0+yO8fxzs7O4uqL66Dr+AnSIk3h1z1tUHzJSj6c4wTp+XmFsrj8Nc0WShPnsjpVTy24rnz435dWC9cjVF3X6630Oa916eWudVHrS3rQufTvcQgztb0AYTlXOWqetZwtxsqhPIfS8DxVLslIWn6u60qvlknXXYYK5Xa9jMlcZdJ1hzQ9Da6rTJWx9iG9exjVldJUmD496LrqpiVz9ePYz2uarTQcXa9y13OVE6RblYO68PMWNQ54ulU3gB7wU1l0LjyO0ne5axupkDdxpO+qf+WHjkSrHJx72/Q0ABk8Dvl6eHA/yeH5+nX+S29TqG1gTL5KKz/CSx7pxMNwbagNcb3K4VSZa3zVjdoG1yQP1Lqs9abrnkellrsls5+7zMpP8gHnXqeO4nrarXbgeh3Lg7Rq+3c/pS+d1PJWan4t+Uh7KI2xempRr7ucNT1wP+JVGWucqieuK31QGio3cTmX3kII6+VYfEVTT7m0agXaqshT09aKH3vg5wNId3z79u3u2H8MmLTmA033RK3Ctsj5YLT7LhT/5wNbt1rjzAemxdEL2SRrhesuP2nOB8PFWRvJCPzXky5/uvfo0aPF0TBTw42B3PN20/sj6FevXp19++23i7PnDG0R5YkeTzzv37+/8HmeB/r39xioX9Wf8r5582b3Hy5cuLCb71h7EZwrLfLkfNV36lQOl5k8aXcu57IQH9kAWWkzT5486c7Jy9sp19Xmp7CKzOfOnevq37l48eLiaJyp7cNlIn3KrfqnvK6Hqf11DNIQyuvp06fd/6l4O1b/ZYzB8VSf1Xeh+vJxi3KpTbagXpDTw5APaevpeO2f58+fXxw9586dO51+BPoizsmTJxc+e/V/7dq13XGoD/qOdhGQHjKSjyOdAuWg7C4n4yntkXLQh9GF70xwmaZAX/dxA9D/jRs3Fmers4p85Ov1D8hX8W35rnv0Qj37uObHY6gNehzkRwbukcA1v66+JmirXm+q62WpuiPNqfco2qrXaQvGGbHs/R+m5LEukK+2U8YR6qpPvrF6qrTaa01jCkM6IW2N7VPaGiDT0HgXQlidY2HgMel2A0eOAUQ3Bd5DY3IAuhFyc9Q512p80CTRIa/Tp08vzp5z6tSp7r8mUeATImDw6jMQGIDBtySQz9hNjXjcbOS4mVI2bZE4c+ZM9/+gYEBnEJbMyrcPlZMbiuKg+zqpF5pAex44Jud9cfrQRGhKewHJ6qxqCKsctU1QP8uWw2nVr9oY5antdJn2sIrM0hk3cOmVupLux1i2fQwhPUztr2PUNKA1PgzhbYpj2jVpKB2V2cvuMo5ts0JP6NvTIA+gPj1/XdeWMK6TF/qSfhyPW9sEDOnS4wJGpbcJySgoR22ryhM5+RBQ1UVLpiG++uqrl+SClt+yrCKf8mUrmuqGPlz12qf7hw8fdsdV/qrbPtQGa3zOJYOu9d2nMDxqvbX6zRitdt5qX0z+ua/q/uAPN4fwMpLu0P1/1TzWBfK16gT6xp+xeqq02ivUfIeo7YwHEa5XN0antDUYG+9CCKtzZA28enNmAHZDR05PiPRkiUGGJ7cMRv5kCMOoFf+wntJpIOYGqbyn3pgdnoJRFq0UcHNlkjAE11nhWhUmY8hLvhrQ+/bLa+LOO0vccIjH09MxpBN3q0z6xVh7Cashww6jgRUXdLrME/xV28c2QH/3tihXV3XGYPWtlY7GO/SL05jnOw3C5pBhh4GuOmOcOkqs6z61TugfyEG7516GfGMPGitj9/915HGYHIV6YrzxvLknIFPLUA8hHD5H0sBjgGCQ1QrcFCMGmCiyhYStQfxkgMBQxGCcCoNVXYlrPZHSCohAxtbTTD1BZKLlRos/4a4wGeh7uuV5aIXNDS5NwslX/myt2y8Ylwzm3Cz79KntcoSTroYGfD2t9qd/+2Vqe1knvvrg8ET1oJ5SMjms7XSZFchVZNbWOupXBsUyeS7bPqYw1l9bq1U1/LrwsnBMHyd/HMf7LSv1MvQzF/R39IF+tR3LVwGk876VgVWp5eLjUMjRB+Wo7UbtkHbpW65Fbac+FguPw/X96ruPKfJVMOxknItlHmJpDK9lGrqPOH2r2pxLV2P3KbZT13o7qL5U4V6H7tChHnBOgbJNvf+38mjd05cZ88ZotVOdt8auKfVUGdqVAWN9aQzCojf6PCvNY20thHDwHEkDj0GCSaQmkDJifOsEAwVGjBs2GIQMfAx0vgefdx+Y8HtYrSS0DAsmsdyMdY28WHFgYuqwLVTwRA0Z9UTQ0YDmk6qxbSBMzihHKxyy+DtS3IiQV08cmSBxg0Ie/JF71UEVnaEnBwO6L706cSP+kLFFOtS1tpEJ0ll1q8zU9rJOWuWgjdEe/Z2adUL783bKf/KbyioyE8dv2go/lWXbxxTG+qsMWWQVhD8I/Kk/xxjhjGM4juv7hrRJjzOGtkV5WdRHKTeTUZ/oSRcOeql+++0b1KFkIk/062NUpVUO2iHtkTZGH6Ycrhsfb4FJq7c90vKya9z3PEiPNrhfpshXYUxyY4i4Lu8Y6KW2oWXaTqsNqv+hK9KHofuU7rG1rg8K8lHbFrzruEwdjt3/x/LQwxkfX5YZ88ZoyUcdaeyoTKmniuYTngfHlBvG+lIL9OPtD/0QB32NtbUQwiHwbIPMb3jdV5Sqm09AFiH2UsPPjZjFlRcQZj6wLM5eMB949sTF4Sdqehx7WJdpZ/EVrPlkZPc6+Q7RSo/4Y/Eoi8fDkX+LVlg5yc//1nVcX7peThznjvwpY9UzMqns0rdk8LIP5cFxrVPCtOrLGWovpFfLUf2kzxpOTClHn04FYSSX2pX0RLqqN1H9VG45rrk8FQ8vxmSWHpWvh+Wa5FY8jl3Xzlj70HWXoVWmKXpw6nWdC/k51c/jVpSe67K2WVCbknM5iduKU5G+3Tk1D+nU8+LYw+ia0lYbhJaf+Mdz/1+8eHG33D8zd39j7vD/gx//uAtD2n/y53/+2e/+8i/v8SddD/83/+yf7fzhD3/yk93w1+ZOMhL+2ytXdtNRWfH/u7/wCy+l893f//u76ZOO2hHpKx38VTbPV3IC/r994cJL/i7/b1y92smitvtPfvjDZ//0N3+zO4Zab+hM9eDXx3Tv9UsatS84tZ1Dq30IhZcjXeUhajm8DC08PHm12rn7VZmVvlyN67TKC+TraeC83GN5+HXpWzpR2pQTanlbEJfrpANVvqEywpR6auFxcA55yl/1wX/w8jqeFk46EJ4mzvXRagchhPVxgj/zjheWgCdVPG2eD1a7T9OOOleuXFn6XZ8QwjR44s2q2Ks2nP7+r/zK7PP/4r+Y/bfz8YX3W3/vBz+YzX72Z2c/dfbs7A8++mj2c4sVq1fN/5/91m/Nfu+992b/8t/7e7N//hd+ofMLIYQQDosYeCtwHA28EMLB8aoaeH/4O78z+3+//vrsH/+r/+rs/F/5K7M/+NGPDs2IOqr+f2TeDn7yi784+5m5wfsv/rk/110LIYQQDhUMvLAc2oLRt/0ihPBq0bc17FXgf3/+/LP/29mzzW2Nfdsdj5q/b+OkHnG+/fKv/rE/tgg9Lf3f/+EPF74hhBDC4ZMVvBBCCCGEEELYEo7FD52HEEIIIYQQQhgnBl4IIYQQQgghbAkx8EIIIYQQQghhS4iBF0IIIYQQQghbQgy8EEIIIYQQQtgSYuCFEEIIIYQQwpYQAy+EEEIIIYQQtoQYeCGEEEIIIYSwJcTACyGEEEIIIYQtIQZeCCGEEEIIIWwJMfBCCCGEEEIIYUuIgRdCCCGEEEIIW0IMvBBCCCGEEELYEmLghRBCCCGEEMKWEAMvhBBCCCGEELaEGHghhBBCCCGEsCXEwAshhBBCCCGELSEGXgghhBBCCCFsCTHwQgghhBBCCGFLiIEXQgghhBBCCFvCRg28119/ffbRRx8tzvZy5cqV2Xvvvdcdf//997MTJ07Mvvnmm+58CoQlXgghhBBCCCG8KhyLFbzXXntt9uzZs9kbb7yx8BkG4+7NN99cnIUQQgghhBDCq0G2aIYQQgghhBDClnAsDLy6RVNbO/mPP05bPX317uzZs7PPPvtspS2eIYQQQgghhHDcOLYreB988MHs/v373dbNnZ2d7hwDjm2cnMN33303e+utt5be4hlCCCGEEEIIx5GNG3gYZlqFc/fll18uQrS5fv16Z7gBhhurdU+ePOnOQwghhBBCCOFVZOMG3q1bt7rVteouX768CNHmzJkzi6MXPH78eHEUQgghhBBCCK8e+chKCCGEEEIIIWwJMfBCCCGEEEIIYUuIgRdCCCGEEEIIW8JWGnj66AqOn0/IzySEEEIIIYQQXgVOPOOLJiGEEEIIIYQQjj3ZohlCCCGEEEIIW0IMvBBCCCGEEELYEmLghRBCCCGEEMKWEAMvhBBCCCGEELaEGHghhBBCCCGEsCVs1MB77733ZleuXFmcrQY/gaCfPzjon0NAVtKXe/311xdXnvPZZ5/tud5yyLgM6KimURnKt8rIz0ZMCQetvN1Jz0PhuLYMpEk81WtNrzrCqN77nNqYwqGDPqQfp5X+lHJRL1NRHkNtl3Isq8/jiNrzulh3euuCPjfUFtfN0DhxEO1qSptelmX6FLptjWviIOSbwkHWO/W433uqWKXfLFM/lXp/ra6Wq9Wea13W69XVevCxvsVh99lNMqUupa8+qI8+XW+SV6kew6vLsV7BY3Dht+4OGh/E+FUJuXfffbfz10D41ltv7bl++fLl2fXr1/f4vfbaa13YKZD2/fv398S/d+9e72Dp4eSg3hjRWQ136dKl3TI6lKGGleP3BkUr3HfffTf75JNPVh5ISd/TQ5c1H5dhZ2dnzzW5L774YhHiOXfu3GlO6vDjmoMf+qppUy9DEynaxNtvv704C+Ho4O1Ybj/99LCgv3399deLs3Hef//92bfffrs4CwcN7efDDz9cnC0P47TaI/cO8HHXx3HaAuMr4TzOm2++uWdc1jUc987qRxtxPv/88+4eA/sxVo87U+9fzBuooz5u3ry5Owequg4hHCzZojkBnooySFVDgQGLm8ZBTOTJkxtNnaBgRDKgfvDBB53hOcann346+/LLL0fDfvzxx11+63ySjzF769atl4ymTYNhfvfu3cXZC/DjhuXgh17ckISpeg3hOHAU+2kILTA+GHsxGvyBKcf4cW1V44w+cPHixe5+zxgf+kHHrITVe2MI4WhwpAw8LZvzn9WkvpUq8NU7ntp5uAcPHuzGx9XVGoyYoesO17hh3LhxY+GzFwwu5Fjn02/KxhP1vqehDKgYHbdv3174rId33nmny3fbOX/+fLOcrMpduHBhcfYC6r+i1cXWiqw//fT2VdsdrhqIte0OGZBc87BDK4qCMAqPPL5VhXOXUf6UR37uD5QNP5ez+pFHTWPKBIx8FJ40BGWoZSWsh2nRlx5UXeLQhajXW3mNXa+6H2OsfvFbRa9joCfyogykKVlVr3KtMvh1VkMc0qxxql9fHoSjH9Jvx+pZtNqEp13la0G+HgcnJGutA+8L4Gm0dFaZUu9D1yse1vVBvLH6cGrd4NAx8J+Hjqyi4S8dTGkzy8J9kQcSfXBtlZVEZEX+q1evzq5du9a1t1qXq0CZXQe4qp/ahsDbjfQsOPfw3u+VllP9FEfxdQ78b92/KhjAzBn6oK2pz5KOyuzlcn9AV64vyik/j8c58XSOUzryd7lbfo7nKedyhXAcOXIreNwktC1RK1WtTsnE2rdx+PI/cYiPY7DHABR0ZN/2qG0dGtwqT5486Qy41kResOrz6NGjxdn+efr0afd/6MkYTxmnDEAMwBiDQ/KLc+fOdf/XNbCRDnXBitlRgye0Xucc19U7kGGvQb+vnTgY/b4diHrkRlW329KuaI9ObbuEadUHflwjH4Wnjocmv9wgQeFBfUhwM9a2KPqUbvaEw4//yFgnHGOQhmQlfc7HdPnVV1/tykq5VDYmb3XyxZP3sXbWlx5UXXKMLjT21OvE9bqjbVBfuq7t22KK7p1W/bKar3QEetR1wnLeai9DEL72U/TL9irSZXUfPTBOqm3g0M+QDpZdEWzlQZ+hrbF7gnGMfrvqtstl5VPZFB4Htc8y0dV15PNxZB31DsqTdudlQFfUVV9fqmVGttqGpoBctW5Il3bDNcYKzpGda4xFrfok7Cr5O+iPh3R9cG1Ix31otwayM2ZTlv0+RJ067nsb4jr1xjjHOfqTnoE0/T7B9SnjaaVv7GjdvyqEo91pztCCfqo+SzrotfYHtRmVDeo9SH7MZfDjGue0ZaVDHlWnU5laRyEcN46cgUdHlTGiQRYjaxk0OAFP44ABBMfAQGcW5MUg07cd4/Hjx4ujYXyA2i9Ty1snOtwUqmNCULeWLgODeCvdepNuhaPu0K0b3wcJk4kqA671gIAntF7nHONXoX3oBgLcBIfS7YN2WOurZVBy8xLoDR22VhqYeCATN2PBRJyJTUsu3ZAJI/xYkJ/f0PW0XH2S//QvJhjL4LKSPud9fU54u/WySb6HDx92/ykb19TX++hLj/jUsetyaOICpCX9MUFgIuPtXHXHpGuq7h3qlzRdJsYt0vH6pW6EwuoBUR/eN3B9/dTz1rs03jY00aJ8lJN0PI2x+q0wwa550GfG6nUKq8jHw506dlInFV8tYgyRcbFKvesdMNc9MuhBE23Ay+C6qrTKTP5jMvRBH/H8howsoM3QrjwOeaMTdLMKy8RbNg8ZEYIHHvjth6njvtcJ12kD0pv+q18z9voch+voedlVy1XGDqGxV/eFKTBu1f5A26SsbkjTZr3NgPcJXaN9CXbeVD1PZWodhXDcOHIG3pkzZxZHL5hqZIlTp04tjl7AwKXBiwHEJzgMmKsODmKZgW5d+AoE6OkTjjLi6gRlWRhYPV251sRH1zTBYbLmk4uDRk/9qqs3C8BPEw0c9d8KJ7gpeZqAQTl1EqH2waRL7Y7JQ213J0+eXBw9hxtNa3WYfInv7RgHrQcEfTdk2ohT2xR1efr06cXZc9S/lplA1X49dkOuciE3fiqbG4hMirk21AeH0vN4lB89KrzyYzLkxr1D/dCWdE0O3TF2TdW9g25reJ17/da6gVb9O96O5Wo/rbJRV7UO1VYZV/n4SW07tS2PgfHSGv+rHlZhFfmULwa86rRlnLTSIcwq9c4qc6u88tN/HrBJJmjdI1tlhlb6Y3gc5cv4B31GAW2Ge6vC41T2qYbEflimnIzL4Ia1Hizo2ipIhrFxfwr0a7W9OsdhHNB9dyqrjB3OUDtuobRrvXDufarVZqewbPnFOusohKPEK/mRldYEp68za7tHvak7fROTVdHqQWslRvRNBATlQe5ltsOs8lSuBfH1dJ/J0VEFI4EyYyAs+8SONgPS2Ri6eWAkUC/EJ//9gNHhbVjOJynbir8jM2V75hgy7GgH6LBOFjCA3J+wPhGhLr0O5A7zAUdYLzLsfDscD7I2iQw7kEyHBfniNO74boM+WGmSnO6GHqYNwb0Fw4J3lfvg2rLGhx4WqYw4pbHsSrRzEON+WC+po7CtvFIGnp60DhlOFW5EdQuBw+DAoLDOiRw3MQYY34LgaKtD34dfBDdXwiHjFLiRrWtgQ2+kxeRoyDjeJKwiUWYMhNb2TGDg79PfMpMIbXXk5iEDuqWX+mR7aFUDI38qfe9XVkOmQhnr6oA/iW2tXrSeAtdVyL7VBVHlQm789OSa9oVsGOf4j23jG0pPfZi60fahvhUGykw4wuNIh/qhnvpYRffkU8PrvLVD4aChrmodSke0gdaKbNWh2r3jcVp5rIsp8lW0FY76Fn0PAlusq96Fxn3iawdFX1igXQ7JO1YfDsYu/Q1d6F43ttpDfS7zsxZT4b5I3fTBtb57Zwt0iF5bO0AYs/UgaRWmjvtTURpV94zRuh+1xodld0FNYagdt5Bctfyct9riqrTSGurr666jEI4Kr5SBR+fF6NDWEsGNaGili5spq1E1DDc9nvr4fvh1wUSTm22dBDMZRX4GpLFBkZUcjFNkHIMXirmR+f74/aK0jurLyuhHE6a+J8roGf3VhwJamZy6WlYnr8Qn74q/A0IYZGs9PMC4J77kANoGBmnrAQZthbbgdTGlXjSZUprc+NAHegG1QX9PsPUuCP1HafCf87F3RqqsyO/1xKodsjGxGesL0Jdea+LhYwT+1dBXecmX+qGePH3KqDjSva8Se9gWrfolftXBYUFdUWeuA3TEeEr56AdVB/ULexgcpCFIyyeJysPbL2PuMrsQ+pgiX6U+3CCuyzvGfurd9Uwcxg89TPHJ6tDOA7VLb0Mc0y5hrD6cugVQ48AQrTaj/PczgaYuaXc1HfVTdD51XAYe3lLXrX6lB0c+vi3D1HF/GXRPUtnpL27Uqp243ocM4lXoe3gxBPqt/UH6GHtYvSzUp/8U0pDBfxB1FMKR4NkGmQ/Sz+YdfnH27Nm8Uz6bD16Ls+e0/BziUwzSmt+AuuOdnZ3F1WdNP8LiJ8f5FGo8ZBsC2aam3Qdl9zxxlbmB2fQHlV+yttLz604tb3WqF8J5PTqSbaoeqCfCI3elLx+Vcch5uNoWXLaWLiWTu77yOgpLmlVG4isvrul6rR+ntqdWufEbgjQUlrSod+SAPv1KTrnaH6t+vFxAHqTtYbwOKsSvcVpyKd8qT2VKei35FAdabaBSr9cytnQ/JHut3yozfqo70fIT/3h+7efmTvzhT37y7Hd/+Zc7/z/48Y8Xvs+e/Ye/+qvP/vYf/aMv+f/XX3757G/M/fC/NnfSjaeDv+QlHYVXOpThZ+bn8v/rf+JP7Enn2ytX9qRD+Fb6Ct+S3/3/6h/7Ywvf5/4uv/oa9fRPfvjDZ//0N39zEfI5tc6RU3H8uve5lt9+653wQvnLUdekr7ZB+joWHh7nVNk4V32Qtof3sDjJqbK43Gr7VYe4KSgtpdOilfZQ+Foegd9QfVBu1QH/PT85ryOn1iVpSQ6uqQwci7469H7dageO8vDr/BetONXP41Ze+4uPXhkXwnHlBH/mnTiE8ArCE+/5DXypJ97LwhNSVtvWuY0ZeHo8n1h1KwtTVvBedX7/V35lNvvpn579Sx89X9H5vR/8YDb72Z+d/dRch38w9/u5xWrVq+b/z37rt2a/9957s3/57/292T//C7/Q+YUQhmGFkFcc9vshtxDCwRADL4RXABlDbsyxFYWtOwc9BByUgYf8vIeYCcY0/vB3fmf2P/6ZPzP7qT/9p2f/wvnzsz/40Y8OzYg6qv5/5O23Zz/5xV+c/czHH8/+xT/357prIYRpMLZj5G1i23gIYZgYeIcM75OM7e/exhUJ3hOo7z5Wrl+/vtZ3AMNeeOJa35s5jO6/bgNPxipk9W45/n//3X83+yc3b87+6a//+uxnfvzj2R/5i3+x83/2u787+/1/79+b/X//9t8+Nv5/ZX6ut2x+Zu5+NHf/m7nD/7+dtw/eYZ6Szk//8Iezn/5rf63zDyGMc/YH/3BxtP189+M/vjgK4XgRAy+EEA4BtsNmuA0hhBDCQfNK/g5eCCGEEEIIIWwjMfBCCCGEEEIIYUvYuIHHe0FsXXLnv98CvMPDBxVa8E6b/7YQ8Yd+a0j51d9vwZ+0jhrSBfIit/9GVNXTGOilT4+rQppVb8vKtSyqw3WAPmlfrwqUt9X+jwO03XXWFTrw/jTG0DgELp/6awghhBDCYbNRA48JER994L0UOT6agN9+DJH79+83jQwmXa0fV8afPI/a1/h8gsiHJNCPvlaFfsZ+KFoQVmnxg54cr8sI46MorrfDmNTyFch1vcuEPvkAyNBDgbB90Of1oZap8NGOqR+Kob/yxdKj+NAohBBCCNvNRg28O3fuzG7durU4ew4TI/y4tipM2Pl0b+Xzzz+fXbp0aXH2gtu3b78kxzbBpBSDCMOXiS3HB/m7Z8cN9PPJJ590uglhXdDHMAqXWSUMIYQQQtgvG9+iye9YVZhwMzFaldOnT3fx64Qdo/HatWuLsxcwub969eri7Dla9cJpa5aexre2CFY/8lZ8OV8l0tZG/uu6P+3nHFhZJIzSY7KILPx+Gaud+P3ar/1a99/L6+GBOJQDvWj1rrVdr/pxrLLJ+eqfygFcA8k8BeJKNqXPuSAvrhGOa/yvugaPX69V+T19wU808ABgP9S6xEkPrXKA6snjiVqHUP0IP6S/PiirwuME8pKW09K3UHupOnZIz3Uj2d3P/cVQmsp3qO1CKw+ua/WOn+6Yoi+gHLVtetoteNh0964+5h9CCCGEcPBs1MC7efNm95twmiD5xGy/MLHyCTsTuzpxBSZpTPb8t7SYxOkHoHHIyfky6EellQbHGJI+iaXsFy5c2A3DuSaQnAPx6m/DYQCz4kgehPvLf/kvd8deXo7x05ZOjFu2dFKW1urmEL6NFnk4b9XVkMxDoFvqi/gYrZz7RBq/ixcvdtdb22ipV1ZmJSO6UV1Tv8hLGrqOLmR4CephP6vGpMcKqfJA3vp7h7UcMjS8nWCAu5E3hTH9taCsyhPjVgbKjRs3ujS8ndJeCDOEtxFPT9D2dZ02WfWFDjC2lG+tt52dnaX7YM2DNPRbjKQL+E3ddulMle/8+fNd2UMIIYQQDouNGnh6l4pJLvBfxt5+YUXOJ+w8RX/nnXcWZy/4+uuvXzL8iOdbNpHz8uXLi7NxmLhTLt8Gee7cucXRCyivh2FizDtyq4CB46uhHDPpFxgOTKzJb9l3Dasu4OnTp93/dYBuNcnu26JbV1gFBgGTbDcoSYuJPWDUYjy4AY/BUifdp06d6tJZ9SED6bnhjAxq146Xg63BlN3bAHJjGLqBNcYU/VWkH5DuMFqIj9wPHjzo/AB5WivfDgaO8PSEG4jouOoLHRCGBxDANcqheqPtjhmZlZoHadAv18FU+U6ePNn9X6Y+QwghhBD2w8a3aALGBxMvPQkHN7paK29jaOKliRWTPZ9IOwormOjz5N1h5WUqnh6yY7Bqsv/kyZPuP7TKtaqBwQSciTjxcRzXMqwKW14rXo79UvWP3FphETWMwBBpGVIKTzqstOjBAU6rOK5rTcRXQW2sptGqXy8H+ddy6XwZ/dY0Wvqr1DgYiY8fP+6OeTAgA1FGGgbMELXsnh6cOXNmcfTi4UCNQxjGAqD91nbnaYzRVydQy74KU+VbR14hhBBCCMtwJAw8h4kkRt4yqyl9Ez8mqhgATFKZcB4mMuy0dXBswr1f0BuGDlsz6/bMVx3akx4guMvkuw2rjLRXjCRWqpZdOQshhBBCCJtjYwYek0cMoJYRV5+6s3rW+hgLtJ6kC1YyWIlgktranimqDHWLGnj+bOer+GoFBiUTZIwIbVdb55bGPjBokbNuz+yjtbqxzpW5qVT9963KtaDuh4znVl222E/9yJCuaWg1qg8MzFp2ndPGWgZoS85V9FfjeD8iXx6IkA7+Y9szoco11C/V7moctidr1bOuAIJvXx5ru315rIsx+UTVcwghhBDCQbMxA49JMZOk1kSUjyOwaqAJLisKTBjrhyMIR/y+rZeaeBO39Q4c8HGNOhHXR1U0OcNgIw2hyaO/Y+QfWJAB6JM7bQs8SKQn3JTtmdKvf5xl6m/rrRPklS7RGbrUu1hjUPe0AdqCIC09PFBdasseEJbrDsYB6bSMqinQXv0hAm11bNWWD5pQdm/XrPjSL9R2kcm/wtjSyyr6c321+hFlUZueshLsZR/rl+gYfXmfQH62Uav9KX/VG/+5LsbarvJwudAN9e79dlXG5BMyMKfoMIQQQghhLTzbMLdu3eKrB3scfi1quPlEeHHlBfjfu3dvcfY8fQ+3s7PThZlPvhc+z+Pg75CG8sHNJ4t70qnXdS4I79dJfz7p7fx1vcpf/ZQGfsirdEDn7gfkgZvCP57HffCf/+e76fzM3P32hQud/+Mf/agLg/+v/62/9ex3f/mXO/8/+PGPOz/K+4c/+cmzv/sLv7DrD8hMOr9x8uQefyC8pwOU7a/84AfP/sbcD/9rc6f6I7zk8XSQR+HlT5nJV/6SHzw86bt+/skPf/jsn/7mb3Zy9LW7qai+cKTnadb2IbweFc+p15WO6pzwnq/C9EE8wni/a7UX5UvaQ6DTn1uEIzx18Lf/6B99qW7+w1/91ZfqXm1FdfPbf+2vdf7gdU+dSeY/+fM/v5sO4VWGVtuFobalNvo3/+yf7fyg1UYB/1ou0nL5f+Pq1Zfa1q9dubKrQ+QMIYQQQjhoTvBnPvF4pWHFgff4hj6XThhWAJb9AuVhc+XKlW5L61BZxO//yq/MZj/907N/abGC9Hs/+MFs9rM/O/ups2dnfzD3+7nFFrSD9Efe/+M//Iez8/P/h5kv/LPf+q3Z783r9V/+e39v9lP/+r/erbituoLXgu2GbJWdUhergv6QeZmfpZgKq11zg3Bw9enbX/zF2d/5jd+Y/W8XujvoOjsu/mpb/+t/7p+b/Z/+0/+00yH6zHAbQgghhIMmBt4cDLez8wnakCqOg4Gnckw1VP7wd35n9j/+mT8z+6k//adn/8L587M/+NGPDm0CLP87X345+1/9o380e+13f3eP/0Hn+0fefnv2k7lx8jNzw+j/+g/+Qff+1H6MJCbvt27d2jXm2Aao30lbp9FYOSgDD/nZ8jj2HuH//T/7z2azP//nZ3987n7u0qWNtKGj5q+29f+c//+//PZv744ZMfBCCCGEcChg4IWXt3JW2GY1dH3TIBvVqS2BU/mff/u3n/3kl36puSWtb6vaFH9tJfQtbNpqJ///5k/9qc5/6ha5dfv//g9/uLtlcb8oHXdsczxotEVznUh+bQMdgjD/xjzs03/n3zmUOjsIf7aP9rVR+f9Xf+kvLUJPS/8f/fv//kttgPMQQgghhIMmK3ghhBBCCCGEsCUcud/BCyGEEEIIIYSwGjHwQgghhBBCCGFLiIEXQgghhBBCCFtCDLwQQgghhBBC2BJi4IUQQgghhBDClhADL4QQQgghhBC2hBh4IYQQQgghhLAlxMALIYQQQgghhC0hBl4IIYQQQgghbAkx8EIIIYQQQghhS4iBF0IIIYQQQghbQgy8EEIIIYQQQtgSYuCFEEIIIYQQwpYQAy+EEEIIIYQQtoQYeCGEEEIIIYSwJcTACyGEEEIIIYQtIQZeCCGEEEIIIWwJMfBCCCGEEEIIYUuIgRdCCCGEEEIIW0IMvBBCCCGEEELYEjZq4L3++uuzjz76aHG2lytXrszee++97vj777+fnThxYvbNN99051MgLPH64Dpp4vpkWAXP97PPPuvSDyGEEEIIIYTD4Fis4L322muzZ8+ezd54442FzzAYWW+++ebirM3Nmzdn169f79J9//33F777Y0q+IYQQQgghhHBQZItmCCGEEEIIIWwJx8LAq1s0tbWT/3Wbpa+inT17ttsmWSHel19+Ofvkk0+6uNpSybZQpef+wHZRnK7VbZ1D+RLW060M5dtCWz/lOKdMUHUFLb8qU5UXmaRf/ff44PF8S20IIYQQQghhMxzbFbwPPvhgdv/+/W6L5c7OTneOAcI2Ts7hu+++m7311lvdsfPtt9/OLl++vLtFky2gGCjAOe7WrVudoebGFgYhabe2dQ7l+9VXX+2mS77KC2q+pEG+1ZgSGFRvv/12l4fCc74MGHDoS3niSMONVgxgtrFyTfq6e/fu4upzOUDl/OKLL2Yff/xxdxxCCCGEEELYDBs38DA0tIrkDgNjCIwzDDPAuMIoevLkSXe+LBhT5OcGCgYcRs3t27cXPs9X5qa+B+h4uu+8805nMIHyxTgSpE/Z3JhyPv3005fKzvkyoHMZo+LevXuzO3fuLM6e40bqxYsXO4NafP3110vnG0IIIYQQQjhYNm7gsVLmK0lyGFdDnDlzZnH0gsePHy+OlkOGoYwmwbmv4Gkb5LLUdFl9A+VbjVtWCvu2aWIcXrhwYXH2nHo+hNJlO6nnqVVBgTHrXL16tbuulUVkXCbfEEIIIYQQwsGTj6xsGAyploHrq3oHgbZ4VtcHRqq2adbtmSGEEEIIIYSjQQy8OadOner+11Uzzuvq2zohXwytvtW6Fqwisj3S8fOWvE+fPl0cvbj+8OHD7v8ysL2UbZrZnhlCCCGEEMLRJAbeHN5jY3Xq0qVLC5/nHyLh/bgbN24sfNZPK19gy2TfFyk//PDDbnuktkryn3OHVUF/h4+PpThsi2VLphuW+mrmEKzYYZBme2YIIYQQQghHk6008DCcMHJw/mXIIdgSqZ8DwPEhEoyZZVbw1pEvDgOs74uU5MEHUvQOHf/rahqrbBhhSo+VN4cPyOgroQoD+vjLEHo3sm7PzM8khBBCCCGEsHlOPBt68SocCzAm+QLmFANtv8iIy08ihBBCCCGEcPTIFs2wFKwMXrt2bXEWQgghhBBCOErEwAuTYOWOrZxsB2WbaAghhBBCCOHokS2aIYQQQgghhLAlZAUvhBBCCCGEELaEGHghhBBCCCGEsCVs3MD77LPPdj/VL4efU39GoDpBuKGfJ+BaK75czZffiRsKM5YebtOs++cLqo6GkP70m30tVpGvpfeaB359sno7kYxT2k0F/6P20xCUx38jEbn99w6XqT+gfpaNM0atc5f5oKCuqPd1gD4owxBqV31O5R0a2/r0Tt4erlUu4nJtSK+kM1aOZepeeQ7B9WXSDCGEEMLybNTAY9LFD27zGqAcvz2HX51w87ttHs7dMvDbb600cP7bbuRPWOTR9Sobvyfn8Qlf5dwmmJhR/qnwG4LoYJ0fZcEw4CchXMf6XcD9TBxJszUZxo9rFfkfpZ+LwKigDQr0jn70W47o7tNPP+2OxyAsk3Hifv3116PGwjLw24/SW5X5oKCvrutnRBgn0Esdo1rQNr2tynmfaI1t9+7d6/qa61xGI3jYd999t9dwqr+BKZB9TB/LtJcQQgghHB02auAxQWZy4zBxwq81qT4smFS1fuicYyZeXGOyFQ4ffqbh5s2bi7PnMFnm6577mYwySb579+7i7AX4Xbp0aXH2AmSocmwTGGAYD+gbOM7XU19w48aNbhw4KDAiL1++vKdNYnDRzjGQHYxXGYQV2nXL8GN8bbXrEEIIIRx/Nr5F86uvvlocvWCdT9tXgUkVkys37gQTLya7+4Gn59qmxpN3nG+V0pN6vy7qlq5KX5pAvnU7V8uvlYev3uE3ZTVH5fCwQ/JNhRWlCgZJnfguw/nz53eNGef+/fuzCxcuLM6eQ7m+/PLLPSu+UMvGOQ7QH/5O9UNPii/nq0RKk/+6rvSRSSthrGYST+lxjXCUD7mVLv8dDw/EwaAgnupwSjk4lp8c50LlaMk8BdrnUPqkQx5qx+SFX23nHr9ek37kPH1gbGCMqP4HBfqn7jAsW9AW0WXVIe26PvggrTHjrrYXUceGqjdw3bWuO7Ueq/whhBBCWJ6NGnisgGgCgdPEctMwqb948eLirE3L+FsGyk15tc0Kg5ZJqePXgckSEzP5MflGb4JJGbLrOmUgn2WoebCaih8TSFYJAP9VVnPWIR/yMPFUm1kn6NMn7By3JsKff/55N7l3WmVrGYx9UNcYOb6lj7LW1WLS/PDDD7vrrDBzjpy0R86BNHhI4mAAUz7kJq6ue3nrgw3SxqBAjtbq5hA8DFA5tLpU+/eYzEOQHumSPnE597LQrhhfuN7aRkvboVySkXpW/8PIQO+6hiP9anxQxwe1hZGyUIZr165150+ePOkMuKFxhzI8evRocfYc+ilji+ueuqwPLSq1vQD68bGBusNVvfDQTmEYO/qMPMqIXklD4VlZpC+FEEIIYXU2auBpNUxP8fnfN3FnwqVr7pZ94stkopVO3yTkIPEVJyaKMvqEvz/DZAjZfbLKsT+1Z0LuE04mzNLtFHiyX/MgDQyXdbBf+YA4tBmxzvpjMu3ycawJtsMEtk60KZtv2VylbJTLDWdWXypMuBUGGTh//Phxd74sxPXVUOrZ2xzykAdlaRlJQ2A8Ca10Pn36tPu/DjA+lC764NzrDnS9Ql+ibiiXoHwqI2MNRqODMVm3jZ8+fXr0AQVGu48zODdEoTW2Yfggg+p6ah1XIxrYpslDCUFb7dPNEK4joG202riPa4RnTNEKsMODCvTqfYk6RL4QQgghrM7Gt2gCT5iZTOI0saoTdn/a7s4naVNgQtJKx7eEHoaxVydGmsj5JPjUqVOLo+cTvNZkCll5aq8J1MmTJ7v/YpmyPHjwoJlHNWZWYR3yOV53TBKZRPoKaKscY1AHMrJxtAnVS+XMmTOLoxeT6nPnznX/RWv1rw/XsSb5GAfgbaJVF3XVZioYc5pMy7ivZVgVjJ8Kq1DrwvUPrEh5Hx6qf4zaVrtDt6rLaphppcnx/tkH45m3VVw1rnxsoy0D//va3hCt9sGDAhmnGJcYw6ugtFlhk17Qibe/qnfi4Neqe+KiV9ez2nzLUA0hhBDCNI6EgecwqWFSxM1/Uzd5JiWtdwMFk8NlVw7DwcGEmQnx2GqK0zJAgMnvw4cPuxWPZQy0daBJrib8dRVp3cjQYNI/9N7pqwjjj4wudwcNdUL9Y/j4qhdG2tiYyApsNXxBhiJxWSEb257Zhww734q8yoMUp2UA49IOQwghhNXZmIHH5IXJQmvCUld5Dhu25dXtkkIrHa3tc8tAGk7fCpfAIKlxgFULJnWaxNVtcL6q0TJq/Ol7Xx7rYIp8Y2CI0GZa1NUUjLPWx1ioU8rYt/rC5JdJMCsere2ZwvWmySiGoeNbW1v5+bY7HhgwWWZyq1Xpda549YFBi57q9sw+xspxWNRVy75VuRb0l75211eXLQ6qfrS91+uD/oMBfvv27YXPXugbtOu+HQ30B+Iyrq2yPZN+w2ovBpnrro4X9Xyov1FGdg2EEEIIYb1szMDThKX1BJgnxUw8N/UUF9nIH9ncyMMIYwsR12Sw7Af/mACTuaEyMylDHt+GSHyf1BFfW5wAo8EnXEyyOJcxqUmbUB4ul4wq18OqjMk3huRrTeTRn7/3hXFG2ZDfoWy0u776Iw8mwcjVF4aPa1R9aNVF1LLJcHd5ePdKVOOa9D29g0J6Iu8p2zPHynFYILPaMf85552uKdBfKK+vwnOshweqS69j+l1tdxi2tKWDgIcMVUbebaOcPgYAYZBX2ztbqJ5XlVfjkhu1VQ7h48dQf+OdVdqO6hEI3/cQJ4QQQggTebZh5pMp9j3tcfg580n9S2Hc7ezsDIbDH1p5uZsbIF04Qbo1zHwStbj6MuRTZW/xj+fp/C/PnHk2n/h0af7M3P3dX/iFzv8PfvzjZ/OJXef/X3/55bPf/eVf3vUH8iD835g794c//MlPdtO5Nnekj/srP/jBbjq/cfXqbln+5M///LP/5k/9qZfSwV/pkw7yAOnL/7/6S3+p8wP8q5zw3d//+y/JiY5d/r/+J/7Ert7J56/M/f5ff/2vd+eV1/7ioyPphLcv6gnde5ui7eg6TudC7UFO7UBtqqYH1U9p4Kf2q/rz9iw/4Jx4U6DOPv+bf3M3Heryty9c2FPH+P/63/pbe9oEfpSXtvIbJ0/uCU/etQ+IVttCt7Rpb6MaAwjfatP/4a/+6rO//Uf/6B5/yV/bKBDe03f9/JMf/vDZP/3N3+zk6BsPVHeSq4+hMYM6lN4c+cuRRqW2Lajyks5Qvdf2ojTlkJs0lD/XOXb5avr4uQw1zVZZQgghhLAcJ/gzv7GGQ2Tn/PnZ/+Mf/IPZX/3v//vu/Pd+8IPZ7Gd/dvZTZ8/O/uCjj2Y/t9jy9qr5/7Pf+q3Z/+edd2ZP/6P/aHZuYHvkUeDKlSvdquHQdjfCsPLhXx48irAyxWrKUFnE7//Kr8xmP/3Ts39pXm+wibaCvP/Jv/KvzP7kv/lvHmq+QBv9vffem/3kP/6PZz//b//b3ZbaEEIIIYSjRAy8DfAf/Qf/wez8rVuz/8Uv/dLsX5gbe3/wox8d2gT1qPr/kbffnv3kF39x9p/8yT85+3N/429sbHvuVNhWhoE39A7hcTDwKAfbZqcOA3/4O78z+x//zJ+Z/dSf/tMba7v/57/zd2b/h//pf5r98f/hf9jjf9D5qo3+zLw+/+p/+V927/L1vfMWQgghhLAxMPDC4cLWpsv/2r/27Ce/9EsvbQ3r2+541Pz//L/1b+3ZwkZTwvmWt8c/+tEi9LT0f/+HPxzcMtbaHnkUXB+Uhe1qRxW2w1FnvmVuCv/zb//2gbRdbXH1NlTblraDstVY7DdfMcWfNqqtiCGEEEIIR5Gs4IUQQgghhBDClnDkfgcvhBBCCCGEEMJqxMALIYQQQgghhC3hSBh4fOiB3z5yd6X8xlIrjLs+ajj/jSZBXi1/wN9l4Qt+NU25dfxWXAghhBBCCCGsysYNPAwovuL33XffdV/ykwOMpkoNh7t8+fJLP0KsH+i+devWnrAYYfs1xmqaOPzOnn35R9tDCCGEEEII4bDYqIHHqtwnn3zSGW31s/hffPFFZzB99NHz39sags/Qkwbpibfffnt27969lz5jTrrXr1/vXbFbFeWDYRlCCCGEEEIIm2CjBh4/royx1febZ/zG2Cq/M4VRiHHY98PNN27cmH355Zd7DMIQQgghhBBCOO5s1MDDgLtw4cLibHVYjcOge+ONN7rzR48ezS5dutQdt8CgJPyTJ08WPvtHK4J9RmUIIYQQQgghHDQbNfDYVlmpHzGpH1vBMPPrOAxFnJj6ft3jx48XR8vxwQcfvCQDW015Fy+EEEIIIYQQNsVGDTyMtQqGmj5cwvbNin9khY+rgBt3y3D69Onuf98W0T5aH1nBhRBCCCGEEMIm2aiBx2rd119/vThbHn2IpX5B8+LFi7P79+8vzl6GFT4MxVOnTi18hlnWAAwhhBBCCCGETbBRA+/DDz/stjbu5ycLPv30085Y869t8mEW/Pq+aHn79u1u9U/v7PEeYJ9BiP+ZM2cWZyGEEEIIIYRwdNmogYeBpd+Pq1+0ZFUO4++dd95Z+LQhDbZy8l6cG4o7OzvdTyXUn1ngnT7S5acVBB9GwSCsP51AXPxX+ZJnCCGEEEIIIRw2GzXwQKtt/Ni5f7QEA4/32qZ8lVLGmr/Th+FH/Dt37uxJl+2W+Ndtl/ixWudhibuud+swYEnTjVAMyLq9lPNqlGJ41o/NhBBCCCGEEELlxNyAyddBQgghhBBCCGEL2PgKXgghhBBCCCGE9RADL4QQQgghhBC2hBh4IYQQQgghhLAlxMALIYQQQgghhC0hBl4IIYQQQgghbAkx8EIIIYQQQghhS4iBF0IIIYQQQghbQgy8EEIIIYQQQtgSYuCFEEIIIYQQwpYQAy+EEEIIIYQQtoQYeCGEEEIIIYSwJcTACyGEEEIIIYQtIQZeCCGEEEIIIWwJMfBCCCGEEEIIYUuIgRdCCCGEEEIIW0IMvBBCCCGEEELYEjZq4H322WezEydOLM6e8957782uXLmyOHsOYQjrEIawIYQQQgghhBCec+LZnMVxCCGEEEIIIYRjTLZohhBCCCGEEMKWEAMvhBBCCCGEELaEGHghhBBCCCGEsCXEwAshhBBCCCGELSEGXgghhBBCCCFsCTHwQgghhBBCCGFLiIEXQgghhBBCCFtCDLwQQgghhBBC2BJi4IUQQgghhBDClhADL4QQQgghhBC2hBh4IYQQQgghhLAlxMALIYQQQgghhC0hBl4IIYQQQgghbAkx8EIIIYQQQghhS4iBF0IIIYQQQghbQgy8EEIIIYQQQtgSYuCFEEIIIYQQwpYQAy+EEEIIIYQQtoQYeCGEEEIIIYSwJcTACyGEEEIIIYQtIQZeCCGEEEIIIWwJMfBCCCGEEEIIYUs4EgbeN998Mztx4sQed+XKlcXV/fHZZ58tjmaz9957b23pjrFMvir/999/v/A52iAn8iK38PLuh5aulHYr36korrsq81A9ffTRR7PXX399cTbrjmt6ci1dEL+G6ysHctSwFfKoYeRczhZDcXEVdOLXW+m3yic31ueqboeYIoto1Tl5VWqa7lZpa/thlTa+yrjWaqMHDXXV0v9xYZl2ehwYqg+NEccFZF1nm153egfBUZfvMGCcpK4YN0MIe9m4gcfk5M0335x99913s2fPnu062O8NhrQ//fTTxdnhwU3zww8/XJyN88Ybb3Rlfu211xY+x4tlyzvExx9/PPviiy8WZ/tvA4B8Z8+e3dPGOH777bd7JzhTuHXr1m56cvfu3evS9Qk67fDOnTt7wu3s7HTtvt6kKe/9+/f3hCVN/Fuyejg5mDLhb8XFCRkb4Nfffffdzr/Kjo49nNyXX37Z6WA/LCuL6hzdeXjqQek4169f3xMOR1zqaNsmD5saF7/99tvZ+++/vzgLYX3QX996663F2f5Zd3rrZlN9OIRwfNiogcck+JNPPukm29W4YZLPBG0/E/AQaGMffPDBS22MYybwXFvnBJ5JweXLl2d3795d+My6Nn7z5s3F2XMw6jEq/CbNTZu4TIQd0sQgnCoraWJU7bdcyIOMbnADk3QZslMgLDrYD8vIQrnRFTqrkzR0i45JbwziMgZ9/vnnC58QQgghhKPPRg08Jr1M2vpWruoTXyZuPH2XG1qlYALHpJKJbn1i71uyPA1WAdi2ouv8x6/Gb/kJDFIZFITxSXZfvnWbgdKXG5qMKi5h+O9biDyNurVoKA/KUMO3/GCovNDSFWX3/FSv/MdfulE8Ju8e/sGDB901OV8tq2BoMaFvtTEm8DypPQy+/vrrxdELfLWSstNe+1ZCMQgpx+3btxc+Bws6pe/cuHFj4bMXGT+H8QBmWVnQEbpCZy3QMbqubXUV6BPeFr2PqO3Xvlbxa1OMScqp8K0+CZ6mh6EftcZFTxOHzIJj0tD4xX/5tWThfysdhQf+98V3dK3vemWoHFCv4+r4oXLK1XaCDnVtTCbCeHilNZYHcvt16U2Qr193uOZ5qnyep4+nQ/TVD2nhHMIO6aOWCef1U69XGWuZXWece1pVbtKSvOhD4RUG15ee4rpOa9mJq2s45V/r1XEZcUO68OvIsWwfBpVbTuGdqmOn6kBhHeUxVO6hPGq5kdGpemYuUHEZcbV/h/DKMJ/gboz5pOzZvXv3FmfDzA0IZuJ7whN/PpFbnL3M3Hjcc51z0rh169bCp5vd756Tdr0uP6fl5xAf2cRYvjs7O905ZfRjwXmfnhSePBxPHzjGD8byqPKD+6kuSAda4R1PGzj38MRXPdU687jKFye8XC3IhzBTqHk7tYx96aptSDcgGavsjupkCNKRfMqnBbL1lQOG4grCeHlboC+1u6ofh7xq+3SG4sKyslD2Vt04yKQ6InxLPtWb9xOnxlP7VN7Ss4chjteNhwfK6bJVJJNQHkNp1jjI4+HrdfA0lIen2Sob5zjpS2EEZVMaytPT5HpNz68rTh+t655GlQfQg7etWj8eR+m7jFXmCuE9fah5qO+rzpWntzvO8YeaJ8dcF1z3c6h5Ko7r15EMHodjlUUyu4xc60uvFd7lbl3nXGUmby8z+bhePazqSdSyKK+qj770JKfOgXOVFZlb13FeHqfKqDSQbUxXwLnLX9MDziWj0uQ/KD+PQ/ldxzVP8uPc5eLcy13lqtQ8kE96Vz0pfcm4jJ5J2+uxFSeEV4WNruDNO9/i6AX16Y6elOmpPE/rBe8q8RRrmSc0886/Z1VwPiDMHj16tDh7ztWrVxdH62NKvn3M62lPuVtcu3ZtcfT8SR668vw4Rob6VE9MyWNVkEUrWNQV56CnfF999dXs4sWL3fEU5oP14uhFXQ09MTwoWLn0topjtXF+E92zeoTu0a9QWNq6ePLkyeJomLp90/P2dOtWxhatuNLj48ePu/9juN7pz600aeusVq7KsrJUHfXhOueJeJVbK9N9Owwok5eLcPSxiq88vvPOO7vy0RfruDD2Xg3vEHr7p8+qP8EqfV/bWR3yIC+nNS56+cmXupa+zp071/0f6psuJ+9TKuxBlAN5vB+Cjzvkzf3Ey4R+ieNl8Osucx+EEYx/5OH9U9u1ta2bNjCf1O5pd8iA/JSdNukycIxefLWD9ESrXH48hMtJHPKmDBrfHj582P0nD6713TtPnjzZlcHLdOHChcVRG8L33ZNoC339fKyPCN8twf0T+ftAvy6L379ZdSd9v+75t6gyohfKi55W0dVY26dtIbPqjbRpY2Jqu6KcLhfnvjuFORljXAvaTc2DeiQOUB/e7vlPGSgbjOmZNsg4rvRA5cz7iuFVZKMGHoNHhUGbwQ1Xb1I+sIDOp06OwSfVot6gaz7rYEq+wADMIIZumGTWrSB9cFMQ3Hi0fcMdgyuT5VXzWBUGfA263GiYVF26dKmbHKADZD1//nx3fQqnTp1aHL3g6dOni6O9tPTex5kzZxZH0+DGobaqGw3/dROtKKzCUx/L6r6Wx9OkPnFTjDvwuHLLtn0PT96eFtDOpk4m98uysns7Yqxx2eWG0tQ13xJEndYHNzUNwgATo1qf3o8r9BXi1vbv6Y/1/YrGID4m4+F5UCE5xbL6FX19k/ZS0aT9IMoh+Zlo6rqMeJCx0iqn/IZk7uP06dOLoxf3KpcR51uGKbfHEchA2Vsy0I683flY1leuVjpOvU58/FQG+owmzky+udbSHcifMqrMem8Wv7F7krZVKy512IK0qM+hPiJafU11UBm6f/OAsqbfukeJPhmBdMZ0VZHfUNvn/lvvb97GprarWk7u7dQLyIDTg50K2ylbeShN4tZ2Lx1RxjE9a5xRG5Kjj4/10RC2kY0aeAwerXeTXnWYoDO5xAjQJIdJ5DL0TVj1RHwdeUyFAZ/Bm0GaGw1PeXkiyeSAyQcDcp9RtF+4IXBj6IM26E8oh2jd5AVPFTH4uKn2TT4cwkv3oJviUNzWDc7hJoae12GwY3CrzvpoTRoc4lO+/barZWXh4cFQnUvHQ8bUFGTYkbf6V2sCc9iM9f0W6LcVZ5OsuxzUO/XFRJjVDvx9FeOwoI1U+XBTH8wcFVj1on/TL1kp8pXKCmHQPWVn3KO8/HeG7kncH6Qn0pAxMzQmHFem6KrFJvqwVtNYARx63/0waekgBl54FdmogbfMxw4YNGo4nQ89LdsvrbRbT5APAgZPBicGdyaRU2GiOzV8K4/W0+O6KrEM1B03K31AgnMMGm7iGPhMyA8Kn4RU9MRRq4f8J2yLMeMKmHhSTt+iwo2Pm3ULb1ukzYS2fm1TICuy9X1oRGhy1LeNbSp6ot73URdt6RmabFMmJtD08SHDdYxlZUFH6KAvz7GPO02B9kS5MBR88oAcU+EhR5149K12AfLSvuqOBW/by/R9kA60ynNUOIhyqN4Z7/RAycc1Xy04KMiDNjKUB3Xcd49hbG61MdpR38MWPTyqeY611Xqd+PhJT+hQ4zr+Q6826BULdC+joK+MY/c9ysp18q71PaWPrBt2pNT0h3YVqa32hVlGVzCl7XOPrfdwT3OVdiXoU9zHqau+7ZnQl4dotXvpiDKO6VkP7PZzrwlhm9iogccNggkgHbt2SlZLmEBpwNCkzVdbGLQYCHWzPgg0aPiEWXvCDwIZBD6QsdI1tHpUYaLLQOorJ+iXdEl/LA9NQlQnhNM2jFXh6S56kzHHgE3dka6/P7huaBvcgGhjXl7KxlNgrqn9aMJSV8DQ1xTjCtAjulM75QZNmq36o237CgJbGbmh1rDkj6yE1c28D/JDr9rSsx94ok79VH1QNtKf8lS5ZfSuwjKyoCPO0Rm6c9AtdbnfbaOqB59gLLtySl3VfjqmJ/oR5VVbVtsUY32/Be3K0wTKssyYs24OohzUmV8jHR/X6P/0nVaeGgv3i/KoD7XIQ/liiDJWuqyUgesaT7yt4Y+u9ICjorHW8/QyDuHhOCYdjZegcR2ZhsYmjAR/mIE+/T5KXQzdk1R+QXzK7A/JhPqIqH1k3WDYkr63S8+/hdqqQ/kZz8Z01WKs7XOPpa2rHRPO01ylXQmlTdi+7ZmgPLwevd7V7l1GykTZQHr2OaDrkPbH/Zxx30EHXq4QXhmeHQHmAwP7CPa4+Y1kcfUFNVwrjLOz+HIUjrjzzv9SHPebTwq7sBX5y/WFEy4nMozlKzmJB/MBbTc+bqicNa7jaeAIK8by8OvzQXnP165UPqVXy9tCcqI7oTycqivOCYNfzRdafi2UvzuXxSGvGrYinbSQzJ6+/Nz15V/rBlcZaoPSieqrMhS3RZW9la63j4p039eOW+WVq/U6RRbHw+JadYZcpLss0qOnTTqSqaXnll9Ng/9D7dn1RV7kWXWr63KenvcF2grUOvD0ppaj6rH2TWSV/vlf667lJ3nkhvQCQ+UAv0Ze0oWnSxwPp2tTZXaIj64qNQ/ScaRfudo+ydOvO1yr6YHnqXbaCgfkz3XCKU7VJUh/fek4VWa1D+mHNPz6UN3hvM44dz17WiqHdCiZ1fah+nl6xKuyVD+VRU75D1HL6zoc05Xk1TUY05/HwRGefJyar0N60mGFsDW/PlplE5TPr7lOoE/PngYyepg+mUPYdk7wZ94JQgghhBAmwyrLfMLerd4MreBtGlZwkO+wPvjEyhSrS0d5esVKGO9O+mrhqrBKxgocq3QhhKPBRrdohhBCCOF4ok/XHyXjrrWdk619B/UqAIYS2wwdvi9w/fqLr4BvGvSh7ZqC7ZBDH8aZirbLxrgL4WiRFbwQQgghTEYrd3DUVu9cNrGzs/e3SdcNK4T+nh/G3WGtFk4FA4+6Erdu3Rp9v24MpXnv3r0YeCEcMWLghRBCCCGEEMKWkC2aIYQQQgghhLAlxMALIYQQQgghhC1howYeL/7W3yfhZWVcfrckhBBCCCGEEJbjSK3g8TUqXo7mtUB+2DiEEEIIIYQQwnSyRTOEEEIIIYQQtoQjY+CxXZPfZeGTu2zR5IdCQwghhBBCCCFM58gYePxmDL/Loi2a+U2VEEIIIYQQQliObNEMIYQQQgghhC0hBl4IIYQQQgghbAkx8EIIIYQQQghhS4iBF0IIIYQQQghbQgy8EEIIIYQQQtgSYuCFEEIIIYQQwpZw4hm/SRBCCCGEEEII4diTFbwQQgghhBBC2BJi4IUQQgghhBDClhADL4QQQgghhBC2hBh4IYQQQgghhLAlxMALIYQQQgghhC0hBl4IIYQQQgghbAkx8EIIIYQQQghhS4iBF0IIIYQQQghbQgy8EEIIIYQQQtgSYuCFEEIIIYQQwpYQAy+EEEIIIYQQtoQYeCGEEEIIIYSwJcTACyGEEEIIIYQtIQZeCCGEEEIIIWwJMfBCCCGEEEIIYUuIgRdCCCGEEEIIW0IMvBBCCCGEEELYEk48m7M4PjROnDixOAohhBBCCCGEl9mAmbIVbMzAS4WFEEIQuS+EEEJwcl9YnWzRDCGEEEIIIYQtIQZeCCGEEEIIIWwJR97Au3LlSrdE2+e4flB89tlnB55HCCGE1XjvvfdeuieEEEIIrzqv1AoeBluMtWlEVyGEowzG3CeffLI4ewH+33zzzeJsGhiKH3300eIshBBCON4ceQPviy++6F6wxF2/fr3zu3Xr1q4f16eAwfL2228vzsIQ0VUI4SiDQQZnz57dvRfgOId33nmn+z8F0moZiiGEEMJxZWtW8LSdUs5Xn9xg+fLLL/c84X399df3xON8P3z//fd70sNpMgLaUsTTYs+beMik85YciitXnzjLn7SE8qjlrfriHIZ0FUIIRwEZZPfv3+/+i08//bT7/+2333b/oY51Pt65cffBBx9010Qdb31cBU+X+43O684HH+dxPp76/aLmh3NIF7+MxyGEEMbYCgMPQ6euOMk4GYIb6nfffbc4ew7n+K/KpUuXFkcvYAKhCYVgMuF5E+/NN99cnD2Xww04bu71KTNp1MnEVKq+OK8TmBBCOGrIwLl8+fLstdde647FG2+80a3kCca0OtbB2HjXGm9ZHVQcZPB0ud98+OGHi7MXcA+q9xjG+dZ2UOXHThXKBior+ZIHMlDGEEIIYYitMPAwdODevXsvbdXhRvrWW29114AbJ9e5SX788ce74XEKsx9DhyfHnqa2lT5+/Lj7L7S1SDd//mvrKf/h0aNH3X9u8tzcgXAeD/9Vnugil2QUT58+7dVVCCEcNzAANc7J6d7AeMc9oG79d2NKcTQm3r59u/t/8+bN7n9rHBUy4lrp6J7lcI0wyKQtpnfv3u3+P3z4sPvfeoAYQgghVI69gSfjhpsoxonQDfirr77q/g+hrTWtJ72rou029SmwePfdd7v//gT66tWr3f/Tp093/2VoPnjwoPvPZELh+a+Jia4vw7Vr1xZHzw05ePLkSfc/hBCOOr4NcwraKllX1CoypghHeL83aExW3j6O6p4jdO9xf+5RMjDrgzm/f+lYW1C19dTzCyGEEPrYmnfwVkFGGPjT1f2gScSNGze6NGWEhRBC2D8nT57s/mOA1d0WnGtMB50zLmt3hQysVVjWqNwP3Dsoo3ZwIHd2U4QQQpjCsTfwdMPjRujvuel9iIsXL3b/K9z4tbqmp6Vff/11939VyB85/N2Q+hGAVTh//nz3H3k1oXH5dV2w9QgkTwghbAu+e6FuWdQ5Bh1oS6V2TDBujo2Jp06d6v771ko5GXhKX1soob6Dp3uP+/uYPGasXbhwofuv7ZrZnhlCCGEqW7GCp3fW2EbD01ocN1Fu0O+//353TfAklOsygkBx+rZTTkUTA+UhOfYLEwFto6RMpKun0Ex0NFFQGF7iJ8x+t5yqHKu84xdCCAcF76kB46vGWpzGW21pPHPmTPdfX8jUuNlCYTTe1rRxeq9ORhv3DF2r6N7j6WhMnrJbRA8eVaZszwwhhDCVE894LHnIcKObku3ZH/zDxVHYJH/7f/ePRp82hxDCfph6X3DYZl8fzNU0+CImD6uAh4G844yhxTFGGKt6bvgpvscDhResxslg40EbK26ccywDFFjtk5EGOzs7u+Op590qu8pHmMPcHhpCCEeBVe4L4TlH2sALIYTwanCc7gstw0t+1cDbD6wYsrK4zjRDCOG4EHthdWLghRBC2DjH6b7gq3cVX6HbL+gE1plmCCEcF2IvrE62aIZRvvvxH18chRDCwXDcbuRaXXN4t85/7mBVfOtp3RoaQgivCjHwVmdjBl4IIYQQQggh9BEDbzWyRTOEEMLGyX0hhBCCk/vC6rzSP3QeQgghhBBCCNtEDLwQQgghhBBC2BKOnYHHbxOxZFudfoB2GfgBb36H6DiCHviSW4WX810vFcrs11tpVFzn/KZThTQ8zdYPo/t1ZDxsVO6h+qYNuZwt/HqrHGP6ryCPh2+14zH9V7mPa5sOYSr0g1XG/BBCCOFV4Fiu4PGbQOzJleNHZPma2RRjRTDhf/PNNxdnx4v6A7yCCc/9+/d39YKe3CBg4k+Z+eQ21/nPp75bBpmQEaM0SY/8BXFJgzrgOl+RIw83MojDl+CUBl+HO2qTM9oObUgyIi/GkjNWjjH9t+B3tNAZ4VvteEz/Lbn9R5tDCCGEEMIrxnxSeOjsJ9vLly8/m0+cF2cvwK/l38fcuOnkmE+qFz5HH2RFZrm5YbC48pw+P8oK6Af9OUN6U36KD/KT3lr1gd/c0OiOkYfwDn5zI2RxdjiM1TfySGZBeOlzSjk8vMDP9eeQX9UDfqqjKfpvyY1flSOEo07tX0O02n0IIYTtYpn7QtjLVr+DV7fLaaXKV+/mE4XdcL7qhJ+vlEBNw9PWSovDaouHcUhbeQyl4dy+fXt3Baki2c+dO9f9F3NjYfbgwYPumDAXL17sjsWFCxe6VacWT58+7f77D+y+9tprnc4ePnzYnX/77bddGg55fPXVV93x48ePOxkcZJwbKHv0XXG94bwuWClDt/zX9bpSRtoeXzrog3IM/dbUWDmm6L/y6NGj2aVLlxZnzzl//vzu6uwU/ZM/cRzS/PrrrxdnIbya1K3jWm3X2O3jz9h4H0IIIRwntsLA40bNdrmPP/544fP8hu3b5ZgIY9Rx02fCvLOz04XDn3hMmj///PPOD4jr2yCJRxjiykAkDaWPDD5BwOBgoq3r9+7de2lSgcwffvjhrnyc+/a8CnL2GSEyBjAAHM4xJAAj5vTp092xOHXqVJd3iydPnnRlrlA2DB4gLmk45EFeQN4tmUAyV0hfhiwOPVMXrhvJrDAgAxkdIzc61/X6g8RjkBZp6EeLx8oxRf8V5Dxz5szi7DknT57s/nNtTP9qS4ojSNPbWQivGowVvnWc/4wBGHmM4fSrqeN9CCGEcNw4lgYehpCeyuI0Cdaklv+E8ZUpJtoYDZ9++unCZy8YY1p1UjqsvugJLisiWm25efNml5bf/DG+mCAQV4aIG5wYCqTnkwrOlQbycS7DaVkwBvpQefoMOVAYZ0gWjJZWHKG8hsL0yUy9uSHbN8nyMO++++5uXugYXco4A4y9KVB3tCnaD/UsxsoxRf8VGcEtMBjH9N9nIMNQ2iFsOzw4Y4zWAxf+MwboQc8y430IIYRw3NiKj6zguDnrhqyJL4afG4Lc3PsmvteuXdt9gouBQFpsNdT2Oib82opIGqTlacvI1MQcA8ev40jfV3M0+XD6VnvGqKtojvKRjC1astTVPodVolYcobyGwvTJrDi+fRXc4GmVRXXLxK3mO6QfB6NQbYpJolYFx8oxRf+Vuq3UYVVuTP915c4ZSjuEbYfxt7VbATDolhnvQwghhOPG1ryDx2Scm7qvlrgBKNdn4GmViCe4GAhMAHi36c6dO7tPdeuKUCt9pYPB2bruq3rrxLf2OZxrG6BvrRR92wCBCVFr1Q8davJE3Lp6RR4yMFrbBXXeZ6DIsAPpbROwgqdV4LFyTNF/BcOvGvS+1XNM/zIc60oeaQ4ZpCG86iw73ocQQgjHia37yAoTW022daOeCkYZT3B5sssEAMcE++7du901gfEy9BELJt96OnxYaEKvj28I5JAxRhhtSxKUo2+1p6VHDBZ0oqfhLV34ClpLF5KxZYSQF+HJ44svvuj8qtE0Bk/ia5yhLZSAQenv+IEbw2PlmKL/CoafbyMG2p8M7in6J2z9iAtp9hmVIbwK0C9aD7NAfXXqeB9CCCEcO55tgP1kO7/xNj/rX/05rvnMb/q7n6Dn0/Ncn9/Qu3O4t/gUvsKA0uGaUFz3u3Xr1p70PC/An+uEg1Y5Wn591PxBMgjSQg4hGRRP5eB/HzUNZPRy1TSkQ9cr8b1cXJceKpLRZSK+x+G/ywTuV3UNnONcLgf5uC6qrmCsHBx7GlV3LTyNVp5j+q/6rjKEcFxYpt3SJ7zvVdQvNI60xgSF8f6kccD7YAghhM2wzH0h7GUjmttPhXEzJn51fpMWulnL+eQcmCTgXyfYrUmAJtBCho27itKX80kD8lZ5Wn591PRELXOlyl3TaPm5zlsGi3Qk58aZ8OtjZZSRIkf6yKA65nqVo/qpLuWUZq1Hp5Vvxa+3yjGkf+nJaclZGdN/lXuojCEcVWi7U6ljq5z3jzou1b6lvuf+ipM+FEIIm4fxOKzGCf7MFXiosB1uA9mGCbAdkK1Mef/kYOCjLQf1HmYIx5ncF0IIITi5L6zO1r2DF/YH76To/a6wfpZ9nzCEEEIIIYRliIEX9sAHUvSFubBeWB3lAzAhhBBCCCEcFBvbohlCCCGEEEIIfWSL5mrkHbwQQggbJ/eFEEIITu4Lq5MtmiGEEEIIIYSwJcTACyGEEEIIIYQt4cgbeK+//nq3RFvdZ599tggxnVXibBI+yuFl5rxy5cqV3evoqkKZx9KouM5Jv/LRRx/tSbPvy5D4c30TqNwtql7duQ4lvxzlrozpqlLzbrVJv87PKlTw8zAhvGrQ74b6m/qZxjv6bmt8FOrrfeMjfW5K/w4hhBCOAsdiBe/WrVvdHly5nZ2d2dtvv917M27BRJo4xwUmHG+++WZXVpWZcy+zJv/SS530EJYyf/fdd931e/fudWn0GWRA/EuXLu2m+e233+4xMtDjBx98sHudujl79uzi6gvIo+V/FOAroZJfDv3Cp59+2v0H5EdnXEeHlNsNsjFdVVp1Wtsxdejt/ZNPPtljWHJ8//793evXr18fnLiGsK3Q31oPXeCdd95ZHD3n/fff78KHEEIIrwTzSeKhs0y280n2s/mEd3H2gsuXLzf9+5hP1JfKd9PMJ+5dGR3O8Ye5wdGVZ24kdOcgP/6DhxdDeiMtjw/yE636wA/9Cq4TR24TLFvftVwc4+fgpzqZoqtKq07xUx21ZMbP5eC66xrw83YQwnFkqO9U1F9rHwX6B31qmX7RGk+dVt8NIYRwsCxzXwh72ap38FhR8a1rWqny1Tv8tcXNIa6vvhC3pqF0ca0nx369rqrgV9Pw1aDKxx9/PPviiy8WZy/z9OnT7r//Zt1rr73WrTo9fPiwO+eJ9YULF7pjwe+w8Vt3LZ48edLFJx2h9LXKNJ8Izc6fP98dC1axvv7668XZrFvpItx8orXwGYa0XS8416/qxuu3rpTVNB4/fry4Mg55IS9P+cWjR4+6cjmU+8svv+yOp+iqQluqv4NH/bAiB8g8n0R2x+LcuXOdbMRVW8TPIQ4/UB/CqwbjbO1vrMJfu3ZtcfYc+nhrTJb7/PPPF77T0P1BjrFJkI+PXxqb1H+B8auOYSGEEMK6OJYGHjdMjBefkOsGOzdaO7ezs9NNwAn71ltv7RobXMN4AjewmLhrog3c8Jk4M4GXgchEW+nfuXNnzw2aG/gt21r37rvvdn4Oaeg68nDuN/0hkAEZb9y40Z3LwKgwuZBxg7ynTp3qjsXp06d7tyoRr06CgHzIT7KePHmy+y/OnDmzpxyUzw2fIYjn2xZx6BEj0dNkq+KHH37YXadcnKv+qGNPg+vEnwphydMhb8rlqNxcG9NVC/SO/h3qB3kBo7LqTecY9DLqW2GIG8KrBlsx7969uzh73jfpZ3WMqtTxmvF8KuRBP2cMV3zy1D2Isd/T08MXPXgDxq9qhIYQQgjr4lgYeEzAuSHLMZnXpBiY4GP8+IoXqynXr1/fc/N3MN606kR8rZzIqGCVS6stGBbczH1izVNibtLA01riu8HJMZMANyLdiMDoBE3a+0AeyowxSHkkw9AKFZN9laOF684ZMhLIb0jWPqNxCkyQfCWyrhAC+lUYdMC5dEAdoxu/Xg22PlQ/XncwVB70MKarFn16B+prqM4wGvsMRxiKG8K2wjiqcRh4MIeBNQR9nrHZ+7y/ezvG7du3u/FHYzjwcJB7EPcSxi/6uvok9xLGJ7/fgI95IYQQwjo5lh9ZwXGD1hNTTXzdCMRx4++b+PLkVyt2GAgYc2zJ4ykrcbhZy9DgZo2B5WljZAJhmewT3q/jiOeT/bp6A0OTdsBYUZlBq0attAQrT26MVtBdi7pi5ZDf0FPx1mrWFFxO6U26dYOyVR4ZWdRjlX1IPw4TOyZflaHyoIcxXbXo0ztQvqE6Y6WvrsY6Q3FD2GYwtvSghpWzq1evdsd9YGjV/j224ucw5tf+pnPGcww3+rrfS9h54fcbZA4hhBAOimP7Dt7Nmze7G6fghuoGoFzfe2z+bhM3XiYFvA/FhJ8bM+n5E1bfQuhON3aMhNb1ujK0H5gkSGbf2uf4NkDKUA1IDM4+44V4rZUr8iE/lbWu5GFo7cfAkGEnQx5dHxa0ofqeIlCeukqncnNtTFct0Htd3aN+ZPhhNFK3js6ZgGoS2gozZHCGsM3wsA6jTStj+xmL1oXeS+Ze4jsvkJH7Tf3KZwghhLBOjvVHVjQxlrFTJ75DcMMlvl6u5xyjjwk/N2b/wAbhhj5iweRaT2fXBauT9SV8N6w02dekBii/GxgYFNoWJNgu1DcBaulR6Su/li5aK2hTYXsraboxPLaqWaGuqjHWt03SUdnqR0ugVaeUe6jNVV1V0Hv9wI2vJmA0+kML0Hs7xFW9yU8Qp2/VMIRth/7Lbg1Wxsa2ZwIPdOrDmfrQagj6Yb3X6Fxjrz6eRP/WAyTGKWRk3GiNOSGEEMLamE+sD51lsp1PqPd8vl5U/8uXL7/0yWzyuT7wCXriexggHfx27HPZiut+xPH0ajqExY+44Mei5SdaeVI+z4NjLzOy44RkUBpKcz7B6M5b1DRqnjUN6bCFwg5Rw5Au5zjJjTwuA7hf1bWnMQTha5txiK82pjSVB4zpqlLTqPUDNQ2XAaq+CTtUhhCOC96ux6DNe7+gH3pfUl/TOWG9n3DN+xnXPHyFsOrrStvzJ76PBUAYHOFB/b2GCyGE0IYxM6zGRjS3TIXpxltdayKtm7yc34BB/nWC7ZP2OoEWhFF8nE8WhF/H+WSBc88HWn6O5JMbK3NLpiq3y1QnQcJ13pqMSEdymsBUlPcYtd7qBIrrtezVr+qqrx4dwrTKJySHp1kZ0pVPCkWVs1X/fr1V5/h5mBC2gWXaMv3O+yP9yMe/OrYRto6P3oc0XtSxUNS+XMeG1jiCXyvP1jgSQgjhZRgzw2qc4M9cgYcK71ttINvQgI8TsK0oX3Q7GNhmq5/lCCH0k/tCCCEEJ/eF1TnW7+CF/cM7In3vjIX9Ud/TCSGEEEII4aCJgfeKgxHS99GVsD/4gE9+zDiEEEIIIRwmG9uiGUIIIYQQQgh9ZIvmauQdvBBCCBsn94UQQghO7gurky2aIYQQQgghhLAlxMALIYQQQgghhC3hyBt4r7/+erdEWx2f91+WVeJsir5y47755ptFqNnsypUru/7EqVDmvrh9eN6kX/noo4/2pNn3tUj8ub4JVO4h+AkDL0cFXfn1Vvvx66Q3xlh9SGdy6LoyVuchbDu0+9bYJNR31b/oR0N9Rf2ub3wcil/HGsK1+m2LsXxDCCGEVTgWK3i3bt3q9uDK7ezszN5+++2lborchIlzXPj222/3lBl39uzZ2fXr13d/s04Gha7XSQ/6oczfffddd/3evXuzN998s9cgA+JfunRpN03kcMMFPX7wwQe716kb5KqQR8v/qECZPvnkk91y0KZ8kobu0BU6U5gPP/xwj5FHeOpD12HIyFMbJC/FIQ+1Y+nM2/tXX321Z7JI/XjbuHnz5uDENYRthX7QZ0i98847i6PnvP/++134w4B8yC+EEELYGPNJ4qGzTLbzCe+z+YR3cfaCy5cvN/37mE/Ul8r3qEFZ0YWYG21deebGwsLnhR//AR3NDZDuWAzpjbQ8PshPtOoDP/QruE4cuU0wVN/Sk8sM6EplQ084B12oDlTGCn6uP4e4tT6QQflwzesYJCuoLrzOgfi1LCEcN1r9qQ+NQ7W/AH2BvtTqK32on/WF78sLhsaaMcbyDSGEV5lVx9bw7NlWvYPnW9dwWqny1Tv8WWXhv0NcX33R1hlPQ+niWk+O/XpdVcGvpuGrQUMgA6tmrNaIp0+fdv+1mgf8nt18EjJ7+PBhd86T5AsXLnTH4uLFi92qUIsnT5508f138ZS+VpnmE5LZ+fPnu2PBih8/mC6QlXDzic/CZxjSdr3g6qoVdeP1W1fKahqPHz9eXOnn3Llzi6PnnDlzZo9u0JXDD8JTLrWJuWHV/Xdc/y1qfZw6dWr25ZdfLs6e69JRXUj/4HUOhHH9h/CqwDjrfQM+/fTTl35/kvGkNSbL8ZuV64J8fPxq3TuqLA8ePNgTppYphBBCWIZjaeBx86vbYJj8w9xo7dzOzk432SbsW2+9tWtscO3jjz/ujt3AYpJ9//79xdnzH6lmAs/kmXC+1RF3586dPUYGN+VbtrXu3Xff7fwc0tB15OFcxsIQt2/f7spCOYSMsQoTBxk3yIsB4Zw+fbp3qxLx6sQDyIf8JCuGjoNh5OWgfG4kDkE8tilSX9INesRI9DTZTskWSa5TLs5Vf9Sxp8F14o8hI1k8evRocfScel7Dt/RI3kNUwxO9OrU91HOYEiaEVwG2Yt69e3dx9rwv0C/rGFWp4zXj+UFQ7x2MUa2xCT/JglyMZyGEEMKqHAsDj5ufnmziuPn5RJoJPgbaF198sfB5vspx/fr1PTd/B+NNqx7E12qMJsus5GgFB8MCg8yNFp4SY2QAT2SJ7wYnxxhGbkRy4xYy1qrR0IJ8fPUOhlaoMEyGJv19Rkg1aBzyG5K1z2icApMaX5WqK4SAfhWGeuBcOqCOqWu/7rquKL6/p0MbUH0C1zjHX3j4q1evdnr0J/V1VbGC0V8NV60sA6sOtGNvM54m5aNNuR9hfQUwhFcJxlHvtzyYo58NQZ+hH/l4zXg+Bv3d70Ny3ocrpMtYpHuH7ksV3+3A2AJ5cBNCCGFVjuVHVnDcoLVqp1WQeuPlxt93k2SyrhU7DASMObbHsb2OOEyaZWhwY+cm7mnrCSthMYwI79dxxHNDjNWzSl3BqWiy76t30EpLsKLmxmgF3bUgXh/kN/RUvLXyNwWXU3qTbt2gbJVHBin1WGUf0g/wMACZlScGdDXAmXQhi8L4JBB5qF9/+MD2yz7dAhNK8iCM4vBEXzD549zbGg8XHAxpnK7zkKI1YQzhVYGHNRonWYmTgdQHfaaOV2MrfkC/rfchnBtnFe4LdSxqjbN1pwVMefgXQgghtDi27+AxIfeVi76br6/qObx/xQQdAw0DgUkBE3Qm8Rh5pKcVIfAthO5keDDJbl33p8SrwGSECUyFCQHyV5j8a0JBGaoBicHZZ4wRr7USRz7kp7LWiQeGVssAm4qMFRnybvQcJLQN1RPHtRwYebqOEwrDf79OeOmqD9qDx6F+qCdBm/Prmnj6BJQ60nW2G9OGh4zzELYZHtYxTmq1fT9jUQghhLANHOuPrGhiLGOnb7WuBZMA4uvles4x+jAamSz4xy4Ix0vwfTC59vf31gnp1o99gCb8voWQ8ruBgSFHWRy2nvZNgFp6VPrKr6WL1graVNjiSJoYKzKGx1Y1K9RV3V46tIUV0I1vhQRWfPURFOTSCrFgpVfGNnrBKHWUnj8YcNhaWbdx8kBBbY341fimfaIf1Rl51jr31eYQXjUYt+m79M+x7ZlAH68Psg5qtcy3kos6VoUQQghrZz6xPnSWyXY+ud39dL1T/ec30pc+Y00+1xefpb/X+JQ18T0MkA5+O/bZasV1P+J4ejUdwuJHXPBj0fKrEMbzdcjPy4zsOCEZFF/lmBtx3XmLmgbpe7lqGtJhC4UdooYhXc5xkht5XAZwv6prT6OPqrt6XnVXz4Fzb4P1vFJ1V88ldy2HzqHWTz0P4bhCW58KfbWO/8RX/1Tf0TlhvX9zzccUrnn4So3vqB8Ll632cY0jSqvKCS2/EEJ4FfGxNSzHRjS3TIXpxltdnfCDbvJydbItf02YdbP1CTRx8KvoRi3Xutn7dZzfoDn3fKDl5+hGr8lBCy9zS6Yq95SJhOu8ZTxIR3J98invMWq9SS7VH9drfVc/1aVcXz06+9EdSE652t6Qr+pvTHe1HK32MVY/IRxHaM9ToQ94f6OfeB+uYxthax9XH8KpX9Y+LlrxRR3nWrLVvNRvq5zQ8gshhFcRxsKwGif4M1fgocI2sw1kGxqwLZCtmX3bCsP+YEumfpYjhNDPq3JfYExga3Xf++EhhBCeE3thdY71O3hh//CO3pQvyIXlWead0BDC9sF7vP4uL2MC7wv6T66EEEII6yYreK84TD7yJPlg4EMtfPwkq6MhjLOt9wXK5dy7d++ln70JIYTwMrEXVmdjBl4IIYQQQggh9BEDbzWyghdCCGHj5L4QQgjByX1hdfIOXgghhBBCCCFsCTHwQgghhBBCCGFLODYG3jfffNMt1brzr5MdNPycwEHg6b7++uvdhznCatAe+AT5EOuqR76GRxucAjJ5u60gk1+nrVf8+lgZgXbkceoXPSW/XKvdoU9dp22GcFSgPXr7rW4q9LXj8LXboXuDj3vq160xpAVppm+HEML2cSwMPG5eb7755uy7777r9uLKwTI381VhAv72228vztYHN2Z+piAcDutqK0yizp49uzgbhgnU/fv3d9vs9evX90yomIjRttS2+cIebd0nnYS/devWbhp8Zr1vsge01w8++GA3PHGrvJyTF9fJm/Bu/GrCqDSQ4TAfqIQwhveJ6qZA36OvbROvvfZaV/58uTeEEF5tjryBx02YCS2TUG5eDp/3Z6I6NNkNYZ3Q1qYad4DhdPPmzcXZrPvRc9qynrBzDaNPbZvPp1++fHn2+eefd+cYXYR///33u3PAMLtz587i7GU+/PDDbvIriIvMMuBUBn2qnbwJ/+mnn3bnGJf0OdIRyP3ll18ei9WOEEIIIYRXmSNv4NUJcOXbb7/dnfwygdVKA6s1WnHQthW5uhJRr+O0gkGaWr3DXxNz/rfCg9LDT9cryMCEmYl03SKjOLhqvHqacpp0K19k9uuSuY8a3vNUOZVvldXhmqdTcdkpP+c4kAxO9as6x0017pUOdak8YUzmCgYbBhdG1hiql3PnznX/BQbcgwcPumPa74ULF7pjcfHixdlXX33VHT9+/LgL75AeMij9Ctf4/T3n0qVLu6vFjx496s4dwtMe4enTp91/XwWg/2EUPnz4cOETwtFG442Pf7o3/Pqv//ru6p0efuBWuX/gV8dQ8mRs0nmNU8cyH5P2g2RtlVn5UMah+8rQGB9CCOF4cOQNvNYEeAgmt0yQ2abCCh83PG7g2o6GY7LqN7F6nWMML26SrHJoMs81Jr34MznY2dnZjUM+9SaOn65XkI2JO8YrZRQYEEqX/5zrZs1N2bf74ZC9Tg5YedF1VmaGtiExMfEtgvwnz5bhxHWX1UGfGA3KF50xWUAHgIwuO3WEjqdCOlXnlA1ZlccQhAfkYjUKqszUBTIPQbi+hw0VGUo1POcYWYC+T5061R2L06dP7+qZcK34oPQd6eLkyZPdf3HmzJnda/zn3FF4rj158qRrVxX0hcEZwnGAfk6f1vjHWMdDDPrcL/3SL3VjCXCu1WyOl71/AGOornue8iNf8oep9491oDSVD1BGR+ceZl0GZwghhM1w5A28ejMCbq562oirN8arV68ujmaz27dvdzdc3cDBt8lxY+Wm5tfrikuFVUWMC1/haG1he+eddxZH00FWpct/JhdMuIFyVQOrrsSAbwmULlwuR9v5ZDTwn8kMhpNz7dq1xdHLaOIiwwnQp281xJhzubRtcBmoJ9d5XaVaBmSmDbjMHCPT1FXBMVRvLaiPvjoBtfuhMK30W0afUNvpM9KB+ENGnAzTEDYNY5TfB+S8/6p/c4/ACPOxro9l7h9CDwFBDyR9WzVjofrV1PtHpa+8WnmvkBbX6hjXwv3ffffdQTlCCCEcfY68gdcyApig6mkjN9+K38C5UWFc1JsiMEH2sDIclWffBJ38681WcXyCXVdmplBXVkATA8mKcaJ8KVudsLfy7Zv4M1FhxchRfL/J1xUhB/lIx/WBY3KBQaB0quHcMk778HpS+npKPmTU9IHMrbZFG1iXETNU/5THy1SRbENhWukP1ZNWHerqg0P82h6cVvsMYRNgJOk+4M4NK2CljLEII6tea+F9buz+sQwaV6bePyp95a1buIW2U9cxpI57rXFw6CFQCCGEo8+RN/CYjO73S5N9N0Y9lZVhp+16Wj0ZwrfsuPOnsutGhp1vqWwZuJuASUbVBa7vifEqaDKk+tQWq6OKb3t0OJehxOSqThQxPmWE+dZKofOWMafJXJ0o+lZP/lcjVuG5huHY6gNM+oaMvxCOInrftW+la4yx+8cqbOL+EUII4dXhyBt4bCHkCWqd5E6FCas+WNFCW/W4ucoYGVsRWofRuQraTomsmqyvqheBgaEVQiGDQ3mMwaR/aPKkdOoHOngnT7RWo1wutl0hK2XXU/hln6A7yNxnxKxrlaqv3OhKhlKrLdFeFbel274n8wI9aVIr0LXKxX/XPRBeT/JlOPoWNNoZ+hpalQzhqEG7ZbUMg4r2vey7ZfSxofvHKhzW/UM7Juo9ojXuhRBC2C6OvIHHE02MGm7OPuEEbpQYf0Pvut24caObIPt7GVoJIz1NWP0mqK1/fcjoJB1B+qS5X4NrCMrrKy/kuepTacH7IEyApFvk17sqU+FJNvXj70KSDvqQ3kmPdAX+PtGQUeE6RS5RDTLJuSotmZn8kceUbVxTqeUmD/LV03+1Jemf8lOntFuQnD4xHasf1anaonStcvGfc9UN4QivdySZ1LIy7P2K/FmlzQpDOE6wK4N2Sz/iZ0DquD3G2P1jFQ7r/kE/puw+dvhxCCGELebZBlgl2/mEtIvnbn7zWlx9zr1795ppt+LiJ+aT2T3XdnZ2ns0n1Z2/0DXyAMJ4HJxQfoQZQvIqLnnOJ+7dsXC/Wg7KrzS41sp3iiwuB85lUDlJZwxk9XSkK0G6ukZY5HcdVzl0Lgjv11U2yVvTq6ievd1UmadSZRP41XLX9lWp5W7VlV+vZWyV23WNq/Un3cl5nQvXN3oK4SChnU2l9tvq6ENqv476hfqY0sG/r0/XvoLz/sS59/lWOrWPalx1NwRytvooeNqS1ccQ78eEIy3JS5q1b7f8QghhE4yNjaGfE/yZK/BQ4UnlBrINRwxWz3jKvM739DYNT/XZOqoVusOCJ/PbpMfw6pH7wuGAnucG3qGPUSGEsCy5L6zOkd+iGcJxgnfZDvs9NYzKdb03GELYDrRNvm4FhRh3IYSw3cTAC2GN8EGGw35P7e7du3t+uyuEENgdwUod7+xi6OF41zZPw0MIYfvZ2BbNEEIIIYQQQugjD6VWI+/ghRBC2Di5L4QQQnByX1idbNEMIYQQQgghhC0hBl4IIYQQQgghbAkx8EIIIYQQQghhS4iBF0IIIYQQQghbQgy8EEIIIYQQQtgSYuCFEEIIIYQQwpYQAy+EEEIIIYQQtoQYeCGEEEIIIYSwJcTACyGEEEIIIYQtIQZeCCGEEEIIIWwJMfBCCCGEEEIIYUuIgRdCCCGEEEIIW0IMvBBCCCGEEELYEmLghRBCCCGEEMKWEAMvhBBCCCGEELaEGHghhBBCCCGEsCWceDZncXxonDhxYnEUQgghhBBCCC+zATNlK9iIgRdCCCGEEEIIYf1ki2YIIYQQQgghbAkx8EIIIYQQQghhS4iBF0IIIYQQQghbQgy8EEIIIYQQQtgSYuCFEEIIIYQQwpYQAy+EEEIIIYQQtoQYeCGEEEIIIYSwJcTACyGEEEIIIYQtIQZeCCGEEEIIIWwJMfBCCCGEEEIIYUuIgRdCCCGEEEIIW0IMvBBCCCGEEELYEmLghRBCCCGEEMKWEAMvhBBCCCGEELaEGHghhBBCCCGEsCXEwAshhBBCCCGELSEGXgghhBBCCCFsCTHwQgghhBBCCGFLiIEXQgghhBBCCFtCDLwQQgghhBBC2BJi4IUQQgghhBDClhADL4QQQgghhBC2hBh4IYQQQgghhLAlxMALIYQQQgghhC0hBl4IIYQQQgghbAkx8EIIIYQQQghhS4iBF0IIIYQQQghbQgy8EEIIIYQQQtgSYuCFEEIIIYQQwpYQAy+EEEIIIYQQtoQYeCGEEEIIIYSwJcTACyGEEEIIIYQtIQZeCCGEEEIIIWwJMfBCCCGEEEIIYUuIgRdCCCGEEEIIW0IMvBBCCCGEEELYEmLghRBCCCGEEMKWEAMvhBBCCCGEELaEGHghhBBCCCGEsCXEwAshhBBCCCGELSEGXgghhBBCCCFsCTHwQgghhBBCCGFLiIEXQgghhBBCCFtCDLwQQgghhBBC2BJi4IUQQgghhBDClhADL4QQQgghhBC2hBh4IYQQQgghhLAlxMALIYQQQgghhC1howbe66+/Pjtx4kTTff/994tQz8N99NFHi7N+3nvvvdlnn322OHs5fc5bkJeHw7Xyu3LlSpfHJkGuvnJMAfkpx2Hj9XIYfPPNN109ejsa47BlrCDvMjIQ1tusu4Nop6vodIxlyjvW9tWPkXMqhF22POuU+Thz2P1lSv26TOofRw3aw5T72aY47Ho9qtB29qMLjZe4o1zfzkGM8ZtkU/OdEI4CG1/Bu3Xr1uzZs2d7HH5nz55dhJjO/fv3Z2+99VZ3zCD17rvv7kn30qVLnb/DwEteOzs7e8LeuXNnaydmh03V+WHwxhtv/P/bO5tQq64rjp/StJQ0pHRUEBFjBhl1lOBAUEIyMJPQQSRgJ7FkEB5kVEQnDoUoSEdFByHEkW8izSAThSDUBxYcZtCRgohISke1CdJS8np+x/s3/6y3zjn33vd93/rB9t6zP9ZeH/vsc84++127OB46dGiSMwwX8pMnT06Odhc+bpWuXLmy428quPDevn17cjTOmTNnmnv37k2O1g83M0ePHp0cTcesOi8qzI0PHz6cHO0MdvM5vFNgzjh37tzkqFgP58+fb5aWlrr5mLmrKIpiK9mRWzQ1Gc6yesbNmh7I1C5OqpcvX+4+Vc4q1dmzZ7uHOx4IHG4kkbfdb+yKYh5YJGGRoiiKoiiKothbLMzf4N25c6d56623JkfPyLbysJqmt3yXLl1qjh8/vubhTrCSyZuQ9W5X4A2WUnwryIqpl8eHWo69PAOZY3UivIlQ/biFIfZJcr186wlpaAsE5cDKuj8sz6Iz7bTVQvVdlvQhj09kK0+xIw9fe796w4VtWvknPxs3Qm1JyIp4OSn6JvrO7QDeinh5HA/zgJ3oIdvV55gu2hKnxDnmyKdOzOvrA31u3rzZnV+ZHzMUP8dlX79+fZI7Dnrp7R1v8OXnaLPHr09nrx/bjBH7I3kc+E5CppfHdhrnAv283EGW9wGeJz/zqfZuL9/v37/fLY4N2Rp1cBmaY/SpFPGyofgOncNuBykS9XTkl+j/IaJNJI2vjNh/jKX3nZVHhs7rofGGn4gpsSVf/YzNE+Dl8rfHgDZeJ8YHG+UHfXodIG/Ij0N9RLuzcetxQKdIjGtWRyBLcwV15cuhWKK/29AnfywesZwUZXHs5dGvnGte7npGsMn1lqyxPsZiMhTPPl95n8SgKPY07QPPttHeWK1evHhxcvQDS0tLq65aXz2nfVBbXVlZmRw9a4MMEvIyaDMml/aSS/0+WX3Q3vugPXKAfLeTfjheXl7ujvnkuL3gdscqxzbBd9cptonIt66TH6sPb682QD7fo6+H/Eh92QRRZ5efoXJv48fS2cujHRoP0ZeyQ34bgnK3M8Yv+kF9yPbYJ3gbykjScSyWfTorRpIrPT0GmS4cy4eS4W04JkmfLO6eN2bvrOcT7WgvkO39Uxb7G0L6yZ7MZmTqfIWos9sDkikZUedI7I/vbgN9eR3Jd5nUcR0pcx0lQ2R+9zx0pn70rbeJdkdiH3FMyk6vQxu3I9OBvL74SqbQscuMfUS71EZjgrreZzZGHMVH7QH55An3HfK9f/IpF1FfyqN8R/27j7y/qLvsVf3YfyYv6kS55APtvQ32ucysT45dr+gXtekj9iG98VMWM+q6DRx7f5R5G/Xvfo9tItEGjr3PGEvqcuy+jsgur+NyZauXx350LLyN5Lsvo28j9O3yIfYBHJMP6rMv5rFP+V92Zb6KfaqN+7wo9hL9M+YWwAnMCZglh3qaGDKYLLIJSCe4J5czJhdoo0nIJ6BpoF2mlyZCly3QR23oL+rnE1+f/KydiBMnkCe7fJIW8iNoYvaJdQy302U56DSLzi5HFyXXSXmyh/ayUZA3ppdAt+xC4TIy3yFT5e5nx8dD9EG0y5HOWXI5fCfPycay+yyzV/25T6O+njdmb6bDEMhFPqCLvotsHAwRxwi6RJspc5lRZ7V1qK+Yu86RrG3sL9PJ5YP7QjGKeFwyv3se9aIM8lwPl5eR2eZtpKfXi3bouxiLb7R9nj4AO91Xbjd4eSSzO+rlfkBWjIWI41MMtSE/K0NGpht57lP0cp9ktqoNn5kPPU5RvkBH+RX51HGiHn12iawPoH/vS7he0tdROfYBuui7yNo5HifVRa7jdfiMvoyMxSPKh9h3ZgtQrrp8imnsjP6NMsDHCjbENiAbsvYex8xXmV2ZbkWxV9iRP7JCmoW7d+92P6ASYSumy2xP9G4LirYKbPYrfH6MIeuDH/7Qlof9+/d3n+LAgQPdFhlgiwfHzsGDByffnm3no662JCjR7sGDB5Naa8l0kj76URLfPqGtT+RR3k6u3fY2ymb1ITq3E/Hk6AeQM4vOhw8f7j6lN+zbt2/yLcd9J6b9oQh0w6/yiRL+lwz5zrfhgMr5EaBMB/8hmBhvePTo0eRbjo9xpfj3p9Hn/I1p1EX+e/z4cXPr1q0f6QVxrI4xjb3zkp1bY/EfQ+Pb0XFfDFTeF/MhvC9soa3iNBbziOaMec+vSCZjlh+4kW2+jQodow7R37JjI+Pb1we+4rv0U4rzZ2wPfb5U3b75M6I/A1Bd34amMRD75ziTBUPnnMuZdrwRc66Z0s/bME+MxYk6EGOHjj6e4ng7ceJEFxv5Ax8dO3as+x5RnWx8yFeZDwG72Xoe+4/10YU4uh+0xbsvFs60sYy+jIzFw+VHPSmnL2zJ5nJvm/lyyE5vq3q6R1DCfzr3susLkDftmHFf9dmV9VEUe4WF+Bs8LjJ9k79z48aN7iGP+sDJz0TThy4cepjYiWBPdoOvH5SZFSZKJmMuGsvLy50sPh1kk7+ystJNqtSP++cXER5s3cdKepjSTT6orFhs1htz3WizQEVb3QDtdvRgxwOH/BJvoncC2zF/Ovq1XxJtdFM8dDO9HuYZb7Ijpr6/Xd8IuDYTm2vXrj1fkNXfzm8XXO8yP2z1Q8RYPIgvSYvn6L0dMLaijqSiKLaGhXjA4ybCH8K46eIGI8Mn49OnT3ertb5qyh/pamWInznmojvvBB5XnBzJjCunvgLPBS6+CfCVY972oP9Goh+eYSLWBbXvbYRuTriATKuHv6F08FO28iyiH3lrC1t1cUU3xlkfjCF8gG0sJEC8SWNczfIWZTPJdPGVU36wKOofx6rOE8dju5n2sqATx4T0nxfGUrRZx9mK9zQxH4IbV90E6YFivTZMc35l50zfPDUP+IA3LswLLjfTq4/NiG9ku+fPCPbSjvmf+U1jLhuTffPe0Dk3z3hDnhZEM8bipLcwsR90zOYP59SpU92cS/8srvXR14cYO6+PHDmyZmzG+sQk/sjULMwTy4yxeHD/gq7EWAuPPm+rrziXbyTqQ9fojCwmYp4xgzzsjnb19VEUe4Fd/4DHTRYnvU+S2vaiX1YS1CWfBzugDathrJpqlZCtIfr/8rj4X716tcufByZYLhyuh37lCVhhY9uCJiH0Y/sFD5bABY5j8kH6C24gmNT87RmykB9tn5b4UCqdBMfIl07AKit6TEOmMw/j+CluK3SiH/Eb/tsqFEtfOJAvGDvZRSluG9a4dN/hB/fFViFdNO6B84AbKc4LzgPGf/S5Qz3/rxjimNtMexlHMR6cL+tBCz5uBzHkhj17WzFNzIfIbvq0nWpepjm/OMd9HtGN/0ahudhvtmaN+WbEN7Id82eEa1ecU7CbscGYY+z5mEIvxqiuYZGhc26e8ZbNE+iAj5CjOLm/PE6MBW3pF8hCJrKHkGzqDu3QUR/er+JIX2PnNSk7ZxyuyX4tBurQxzTME8uMsXjEBR7y4ryt+w5nPWM+I97bAP7VA5pi4nbgT93LzTNm+H+PvU/a0EdR7FlWt5F2Ul3zB8MZ1EPVmNS+T0bWpo+srtLK5I992wk6LScNMVQX3b2sfeCclDyDYy+nPnY70T9RhtNOnGv+6DjmRXntBeNHcqNOUZ8I8qk31McQ0s/beMyJD3noKWIebeM4iXmSPeQ/1VHS2IAslujtdksvJS9TGyfLg3+2+dc//bQrh++fPFn99wcfdPlPP/usywPy//b662n+vXfe6fJ/3ybk4GeX8/DChS6f9FKbJId88dtXXln9c5tH/l9OnHjuU5cj+aTfvf328/y/fvTR8/wh/ZUv+TFf8uX/v7dy//PFF+lYj2hMaRxorCvF9j72YSzmlEvnDJ0bSowP6pOv8qiD+hHSyZFdShFkqkx9qM9M55gnu/tscz+RqI981c90zvKiDD79nIuoLrKm7SP6ijrC/SKyPCfKi/Mn5dgivC4p2uexIvk8lzE0x6C3l8Xx5uNfekR5pIiXKU6uZ9avoL7GRUS2T0Psw+M4dl6Dx002uAyNHaU+nUU2ToZiSd1Mr8hYPLI++PQxJ/uUVCbZrleW52R2Quwj2hZjEv05NGb6fOV9alxP49OiWER+wj/tyVD0wIodWzOG3i7tFv74h390n3/6/Dfdp45hp+Tp2GFlj1U5bYMrmua7jz9umhdfbH45WXX99sMPm+bll5sXXn21edrm/XqyLWyv5f/3yy+bb9vx8quvvmp++tpr3diZ9++piqKYHa6ZvH1pb+Cfv82dF71Jq3O4KIpiNuoBbw8RH6I24oEMNjJPx0494K3l+2++af715pvNC2+80fzsyJHm6YULW/YQtVPzf3HyZPPkvfeal9qbwZ+/+243ZvibqLo5LIrNgW1wbIvzhzltddyI+ZqtgysrK+kW6aIoimIAHvCKYidT2yxy/vf116tP3n9/cFvjbsn3bZxsB9W2T+UT/2nkfPfJJ5PcZ9t1fFtPURQbT9xKtxFztWTyWRRFUcxOvcEriqIoiqIoiqJYEBbiv0koiqIoiqIoiqIo6gGvKIqiKIqiKIpiYagHvKIoiqIoiqIoigWhHvCKoiiKoiiKoigWhHrAK4qiKIqiKIqiWBDqAa8oiqIoiqIoimJBqAe8oiiKoiiKoiiKhaBp/g9yIS5c717J7wAAAABJRU5ErkJggg==;" vertex="1" parent="1">
          <mxGeometry x="-430" y="-50" width="588" height="390.68" as="geometry" />
        </mxCell>
        <mxCell id="cYQp5CiZOz7pDUolLlOw-7" style="edgeStyle=orthogonalEdgeStyle;rounded=0;orthogonalLoop=1;jettySize=auto;html=1;entryX=0.5;entryY=0;entryDx=0;entryDy=0;" edge="1" parent="1" source="cYQp5CiZOz7pDUolLlOw-3" target="cYQp5CiZOz7pDUolLlOw-4">
          <mxGeometry relative="1" as="geometry" />
        </mxCell>
        <mxCell id="cYQp5CiZOz7pDUolLlOw-19" style="edgeStyle=orthogonalEdgeStyle;rounded=0;orthogonalLoop=1;jettySize=auto;html=1;entryX=0;entryY=0.5;entryDx=0;entryDy=0;" edge="1" parent="1" source="cYQp5CiZOz7pDUolLlOw-3" target="cYQp5CiZOz7pDUolLlOw-18">
          <mxGeometry relative="1" as="geometry" />
        </mxCell>
        <mxCell id="cYQp5CiZOz7pDUolLlOw-3" value="If tota_amount&amp;nbsp;&lt;div&gt;(Between 100,000 and 300,000)&lt;/div&gt;" style="rhombus;whiteSpace=wrap;html=1;" vertex="1" parent="1">
          <mxGeometry x="232.5" y="80" width="235" height="110" as="geometry" />
        </mxCell>
        <mxCell id="cYQp5CiZOz7pDUolLlOw-8" style="edgeStyle=orthogonalEdgeStyle;rounded=0;orthogonalLoop=1;jettySize=auto;html=1;entryX=0.5;entryY=0;entryDx=0;entryDy=0;" edge="1" parent="1" source="cYQp5CiZOz7pDUolLlOw-4" target="cYQp5CiZOz7pDUolLlOw-5">
          <mxGeometry relative="1" as="geometry" />
        </mxCell>
        <mxCell id="cYQp5CiZOz7pDUolLlOw-25" style="edgeStyle=orthogonalEdgeStyle;rounded=0;orthogonalLoop=1;jettySize=auto;html=1;entryX=0;entryY=0.5;entryDx=0;entryDy=0;" edge="1" parent="1" source="cYQp5CiZOz7pDUolLlOw-4" target="cYQp5CiZOz7pDUolLlOw-23">
          <mxGeometry relative="1" as="geometry" />
        </mxCell>
        <mxCell id="cYQp5CiZOz7pDUolLlOw-4" value="Elsif tota_amount&amp;nbsp;&lt;div&gt;(Between 300,001 and 700,000)&lt;/div&gt;" style="rhombus;whiteSpace=wrap;html=1;" vertex="1" parent="1">
          <mxGeometry x="232.5" y="230.68" width="235" height="110" as="geometry" />
        </mxCell>
        <mxCell id="cYQp5CiZOz7pDUolLlOw-10" style="edgeStyle=orthogonalEdgeStyle;rounded=0;orthogonalLoop=1;jettySize=auto;html=1;entryX=0.5;entryY=0;entryDx=0;entryDy=0;" edge="1" parent="1">
          <mxGeometry relative="1" as="geometry">
            <mxPoint x="150" y="790" as="sourcePoint" />
            <mxPoint x="150" y="830" as="targetPoint" />
          </mxGeometry>
        </mxCell>
        <mxCell id="cYQp5CiZOz7pDUolLlOw-16" style="edgeStyle=orthogonalEdgeStyle;rounded=0;orthogonalLoop=1;jettySize=auto;html=1;exitX=0.5;exitY=1;exitDx=0;exitDy=0;entryX=0.5;entryY=0;entryDx=0;entryDy=0;" edge="1" parent="1" source="cYQp5CiZOz7pDUolLlOw-5" target="cYQp5CiZOz7pDUolLlOw-9">
          <mxGeometry relative="1" as="geometry" />
        </mxCell>
        <mxCell id="cYQp5CiZOz7pDUolLlOw-26" style="edgeStyle=orthogonalEdgeStyle;rounded=0;orthogonalLoop=1;jettySize=auto;html=1;entryX=0;entryY=0.5;entryDx=0;entryDy=0;" edge="1" parent="1" source="cYQp5CiZOz7pDUolLlOw-5" target="cYQp5CiZOz7pDUolLlOw-24">
          <mxGeometry relative="1" as="geometry" />
        </mxCell>
        <mxCell id="cYQp5CiZOz7pDUolLlOw-5" value="Elsif tota_amount&amp;nbsp;&lt;div&gt;(Between 700,001 and 999,999)&lt;/div&gt;" style="rhombus;whiteSpace=wrap;html=1;" vertex="1" parent="1">
          <mxGeometry x="232.5" y="380" width="235" height="110" as="geometry" />
        </mxCell>
        <mxCell id="cYQp5CiZOz7pDUolLlOw-29" style="edgeStyle=orthogonalEdgeStyle;rounded=0;orthogonalLoop=1;jettySize=auto;html=1;" edge="1" parent="1" source="cYQp5CiZOz7pDUolLlOw-9">
          <mxGeometry relative="1" as="geometry">
            <mxPoint x="820" y="565" as="targetPoint" />
          </mxGeometry>
        </mxCell>
        <mxCell id="cYQp5CiZOz7pDUolLlOw-9" value="Else&amp;nbsp;&lt;div&gt;Category = Extreme High&lt;/div&gt;" style="rounded=0;whiteSpace=wrap;html=1;" vertex="1" parent="1">
          <mxGeometry x="265" y="530" width="170" height="70" as="geometry" />
        </mxCell>
        <mxCell id="cYQp5CiZOz7pDUolLlOw-12" value="False" style="text;html=1;align=center;verticalAlign=middle;whiteSpace=wrap;rounded=0;" vertex="1" parent="1">
          <mxGeometry x="300" y="190" width="60" height="30" as="geometry" />
        </mxCell>
        <mxCell id="cYQp5CiZOz7pDUolLlOw-13" value="False" style="text;html=1;align=center;verticalAlign=middle;whiteSpace=wrap;rounded=0;" vertex="1" parent="1">
          <mxGeometry x="300" y="340.68" width="60" height="30" as="geometry" />
        </mxCell>
        <mxCell id="cYQp5CiZOz7pDUolLlOw-14" value="False" style="text;html=1;align=center;verticalAlign=middle;whiteSpace=wrap;rounded=0;" vertex="1" parent="1">
          <mxGeometry x="300" y="490" width="60" height="30" as="geometry" />
        </mxCell>
        <mxCell id="cYQp5CiZOz7pDUolLlOw-22" style="edgeStyle=orthogonalEdgeStyle;rounded=0;orthogonalLoop=1;jettySize=auto;html=1;entryX=0.5;entryY=0;entryDx=0;entryDy=0;" edge="1" parent="1" source="cYQp5CiZOz7pDUolLlOw-18" target="cYQp5CiZOz7pDUolLlOw-20">
          <mxGeometry relative="1" as="geometry" />
        </mxCell>
        <mxCell id="cYQp5CiZOz7pDUolLlOw-18" value="&lt;div&gt;Category = Low&lt;/div&gt;" style="rounded=0;whiteSpace=wrap;html=1;" vertex="1" parent="1">
          <mxGeometry x="560" y="100" width="170" height="70" as="geometry" />
        </mxCell>
        <mxCell id="cYQp5CiZOz7pDUolLlOw-20" value="Next product_id" style="rounded=0;whiteSpace=wrap;html=1;" vertex="1" parent="1">
          <mxGeometry x="740" y="600" width="160" height="40" as="geometry" />
        </mxCell>
        <mxCell id="cYQp5CiZOz7pDUolLlOw-27" style="edgeStyle=orthogonalEdgeStyle;rounded=0;orthogonalLoop=1;jettySize=auto;html=1;" edge="1" parent="1" source="cYQp5CiZOz7pDUolLlOw-23">
          <mxGeometry relative="1" as="geometry">
            <mxPoint x="820" y="285.68000000000006" as="targetPoint" />
          </mxGeometry>
        </mxCell>
        <mxCell id="cYQp5CiZOz7pDUolLlOw-23" value="&lt;div&gt;Category = Mid low&lt;/div&gt;" style="rounded=0;whiteSpace=wrap;html=1;" vertex="1" parent="1">
          <mxGeometry x="560" y="250.68" width="170" height="70" as="geometry" />
        </mxCell>
        <mxCell id="cYQp5CiZOz7pDUolLlOw-28" style="edgeStyle=orthogonalEdgeStyle;rounded=0;orthogonalLoop=1;jettySize=auto;html=1;" edge="1" parent="1" source="cYQp5CiZOz7pDUolLlOw-24">
          <mxGeometry relative="1" as="geometry">
            <mxPoint x="820" y="435" as="targetPoint" />
          </mxGeometry>
        </mxCell>
        <mxCell id="cYQp5CiZOz7pDUolLlOw-24" value="&lt;div&gt;Category = Mid High&lt;/div&gt;" style="rounded=0;whiteSpace=wrap;html=1;" vertex="1" parent="1">
          <mxGeometry x="560" y="400" width="170" height="70" as="geometry" />
        </mxCell>
        <mxCell id="cYQp5CiZOz7pDUolLlOw-30" value="True" style="text;html=1;align=center;verticalAlign=middle;whiteSpace=wrap;rounded=0;" vertex="1" parent="1">
          <mxGeometry x="480" y="110" width="60" height="30" as="geometry" />
        </mxCell>
        <mxCell id="cYQp5CiZOz7pDUolLlOw-31" value="True" style="text;html=1;align=center;verticalAlign=middle;whiteSpace=wrap;rounded=0;" vertex="1" parent="1">
          <mxGeometry x="480" y="260" width="60" height="30" as="geometry" />
        </mxCell>
        <mxCell id="cYQp5CiZOz7pDUolLlOw-32" value="True" style="text;html=1;align=center;verticalAlign=middle;whiteSpace=wrap;rounded=0;" vertex="1" parent="1">
          <mxGeometry x="480" y="410" width="60" height="30" as="geometry" />
        </mxCell>
      </root>
    </mxGraphModel>
  </diagram>
</mxfile>
